<?xml version="1.0" encoding="utf-8"?>
<svg version="1.1" xmlns:xlink="http://www.w3.org/1999/xlink" width="10px" height="16px" xmlns="http://www.w3.org/2000/svg">
  <g transform="matrix(1 0 0 1 -1744 -87 )">
    <path d="M 7.95712890625 15.47318359375  C 8.0791796875 15.595234375  8.239140625 15.65625  8.39908203125 15.65625  C 8.5590234375 15.65625  8.718984375 15.595234375  8.84103515625 15.473203125  C 9.08509765625 15.22912109375  9.08509765625 14.83337890625  8.84103515625 14.589296875  L 2.25171875 8  L 8.84103515625 1.41068359375  C 9.08509765625 1.1666015625  9.08509765625 0.77087890625  8.84103515625 0.526796875  C 8.59693359375 0.28271484375  8.20123046875 0.28271484375  7.95712890625 0.526796875  L 0.92587890625 7.558046875  C 0.681816406250001 7.80212890625  0.681816406250001 8.1978515625  0.92587890625 8.44193359375  L 7.95712890625 15.47318359375  Z " fill-rule="nonzero" fill="#000000" stroke="none" transform="matrix(1 0 0 1 1744 87 )" />
  </g>
</svg>