<?xml version="1.0" encoding="utf-8"?>
<svg version="1.1" xmlns:xlink="http://www.w3.org/1999/xlink" width="33px" height="31px" xmlns="http://www.w3.org/2000/svg">
  <g transform="matrix(1 0 0 1 -24 -259 )">
    <path d="M 31.3358166189113 29.9938596491228  L 29.7851002865332 24.7093567251461  C 29.7851002865332 24.3105263157895  29.8985673352436 23.9298245614035  30.0971346704873 23.6035087719298  C 30.1538681948425 23.5038011695906  30.2295128939826 23.4131578947367  30.2957020057309 23.3225146198831  C 31.9409742120341 20.9657894736842  32.9054441260744 18.1467836257311  32.9054441260744 15.1374269005847  C 32.9338108882523 6.78011695906434  25.5773638968481 0  16.4810888252151 0  C 8.54785100286546 0  1.92893982807998 5.17573099415201  0.378223495701805 12.0464912280702  C 0.151289398280842 13.0526315789475  0.0283667621779205 14.0769005847954  0.0283667621779205 15.1464912280702  C 0.0283667621779205 23.5128654970761  7.10114613180533 30.474269005848  16.1974212034383 30.474269005848  C 17.6441260744985 30.474269005848  19.5919770773639 30.0573099415204  20.6604584527222 29.7763157894737  C 21.72893982808 29.4953216374268  22.7879656160459 29.1236842105263  23.0621776504296 29.0239766081871  C 23.336389684814 28.924269005848  23.6389684813751 28.8698830409357  23.9415472779368 28.8698830409357  C 24.2819484240688 28.8698830409357  24.6034383954154 28.9333333333332  24.8965616045846 29.0511695906432  L 30.2578796561606 30.8730994152046  C 30.2578796561606 30.8730994152046  30.4848137535815 30.9637426900584  30.6266475644699 30.9637426900584  C 31.0426934097421 30.9637426900584  31.3830945558741 30.6464912280702  31.3830945558741 30.2385964912282  C 31.3830945558741 30.1479532163743  31.3358166189113 29.9938596491228  31.3358166189113 29.9938596491228  Z " fill-rule="nonzero" fill="#606266" stroke="none" fill-opacity="0.858823529411765" transform="matrix(1 0 0 1 24 259 )" />
  </g>
</svg>