<?xml version="1.0" encoding="utf-8"?>
<svg version="1.1" xmlns:xlink="http://www.w3.org/1999/xlink" width="27px" height="25px" xmlns="http://www.w3.org/2000/svg">
  <g transform="matrix(1 0 0 1 -17 -271 )">
    <path d="M 26.9618374558306 18.3096085409252  C 26.6088339222617 18.4252669039145  26.2081272084807 18.5409252669038  25.8074204946998 18.6387900355871  C 25.4639575971729 18.7277580071174  25.0250883392225 18.8256227758006  24.5480565371022 18.9234875444839  C 23.5462897526501 19.1192170818505  22.2678445229685 19.32384341637  21.3042402826858 19.32384341637  C 12.1261484098943 19.32384341637  4.98975265017639 12.491103202847  4.98975265017639 4.27935943060504  C 4.98975265017639 3.69217081850536  5.05653710247373 2.94483985765112  5.13286219081249 2.37544483985772  C 5.19010600706717 1.9928825622776  5.2568904593639 1.61032028469748  5.35229681978797 1.23665480427036  C 5.44770318021203 0.836298932384238  5.56219081272079 0.435943060498118  5.6862190812722 0.0444839857649981  L 4.92296819787966 0.676156583629961  C 1.79363957597197 3.22064056939496  0 6.85053380782932  0 10.6316725978647  C 0 13.238434163701  0.810954063603958 15.747330960854  2.36607773851576 17.9270462633451  C 2.58551236749124 18.238434163701  2.70954063604265 18.4786476868328  2.67137809187266 18.6387900355871  C 2.63321554770328 18.7989323843416  1.53604240282712 24.1548042704628  1.53604240282712 24.1548042704628  C 1.47879858657243 24.4128113879003  1.58374558303915 24.6708185053382  1.79363957597197 24.8398576512454  C 1.93674911660808 24.9466192170817  2.10848056537091 25  2.28021201413435 25  C 2.37561837455842 25  2.47102473498248 24.982206405694  2.5568904593639 24.9466192170817  L 7.90918727915187 22.9804270462634  C 8.08091872791531 22.9181494661921  8.26219081272079 22.8825622775801  8.45300353356893 22.8825622775801  C 8.45300353356893 22.8825622775801  8.68197879858644 22.8647686832741  9.05406360424006 22.9982206405694  C 10.8572438162547 23.6565836298934  12.8512367491168 24.0658362989325  14.845229681979 24.0658362989325  C 19.2911660777383 24.0658362989325  23.4699646643107 22.2775800711744  26.3035335689048 19.1637010676158  C 26.3035335689048 19.1637010676158  26.6088339222617 18.7722419928826  26.9618374558306 18.3096085409252  Z " fill-rule="nonzero" fill="#606266" stroke="none" fill-opacity="0.858823529411765" transform="matrix(1 0 0 1 17 271 )" />
  </g>
</svg>