<?xml version="1.0" encoding="utf-8"?>
<svg version="1.1" xmlns:xlink="http://www.w3.org/1999/xlink" width="28px" height="27px" xmlns="http://www.w3.org/2000/svg">
  <g transform="matrix(1 0 0 1 -34 -110 )">
    <path d="M 28 3.53571428571429  C 28 1.59795918367346  26.3932885906039 0.0367346938776011  24.4201342281879 0  L 3.5986577181208 0  C 1.6255033557048 0.0367346938776011  0.0187919463087383 1.60714285714286  0 3.53571428571429  L 0 17.7061224489796  C 0.0187919463087383 19.6346938775511  1.6255033557048 21.1959183673469  3.5986577181208 21  L 15.5127516778524 21  C 15.7758389261744 21.1959183673469  16.0389261744967 21.3061224489796  16.2268456375838 21.4897959183673  L 22.1463087248321 26.8255102040817  C 22.4751677852349 27.1377551020409  23.020134228188 27.0091836734694  23.020134228188 26.5591836734694  L 23.020134228188 21.9122448979593  C 23.020134228188 21.361224489796  23.3771812080537 21.1867346938775  23.9409395973156 21.1867346938775  L 24.034899328859 21.1867346938775  C 26.0080536912753 21.1867346938775  27.9906040268458 19.6346938775511  28 17.6969387755102  L 28 3.53571428571429  Z " fill-rule="nonzero" fill="#02a7f0" stroke="none" fill-opacity="0.803921568627451" transform="matrix(1 0 0 1 34 110 )" />
  </g>
</svg>