<?xml version="1.0" encoding="utf-8"?>
<svg version="1.1" xmlns:xlink="http://www.w3.org/1999/xlink" width="35px" height="35px" xmlns="http://www.w3.org/2000/svg">
  <g transform="matrix(1 0 0 1 -527 -550 )">
    <path d="M 33.0049666015625 25.696461796875  C 34.2173446484375 23.35468953125  34.930661015625 20.7035269921875  34.930661015625 17.885117890625  C 34.930661015625 8.4846114453125  27.3104675 0.8644978515625  17.9100809765625 0.8644978515625  C 8.5096144921875 0.8644978515625  0.889460937500001 8.48461140625  0.889460937500001 17.885117890625  C 0.889460937500001 27.2859841015625  8.5096144921875 34.90609765625  17.9100809765625 34.90609765625  C 21.76914453125 34.90609765625  25.3025888671875 33.5931478515625  28.1577330859375 31.4295747265625  C 28.2750535546875 31.2964649609375  28.352081328125 31.126700078125  28.352081328125 30.9359094140625  C 28.352081328125 30.5192319140625  28.0141504296875 30.1813809765625  27.597552890625 30.1813809765625  C 27.381379453125 30.1813809765625  27.1887900390625 30.2671228515625  27.0514031640625 30.4124243359375  L 27.0417696875 30.4124243359375  C 24.486781953125 32.2924696484375  21.3419541796875 33.418106484375  17.9266697265625 33.418106484375  C 9.4146008984375 33.418106484375  2.51308015625 26.515706328125  2.51308015625 18.0041171875  C 2.51308015625 9.49116898437501  9.4146009375 2.59048761718751  17.9266697265625 2.59048761718751  C 26.43957796875 2.59048761718751  33.3402193359375 9.49116894531251  33.3402193359375 18.0041171875  C 33.3402193359375 20.6045541015625  32.73015296875 23.0517748828125  31.5923244140625 25.20059796875  L 31.5923244140625 25.2132294140625  C 31.5713786328125 25.285060703125  31.548474140625 25.3550932421875  31.548474140625 25.432081015625  C 31.548474140625 25.848758515625  31.8863650390625 26.186609453125  32.302962578125 26.186609453125  C 32.627662421875 26.186609453125  32.8990384375 25.9781907421875  33.0049666015625 25.691145390625  L 33.0049666015625 25.696461796875  Z M 11.7297512109375 15.030813125  C 12.6803067578125 15.0308530859375  13.4505844921875 14.2614946875  13.4505844921875 13.31089921875  C 13.4505844921875 12.3603437109375  12.6803067578125 11.5901058984375  11.7297512109375 11.5901058984375  C 10.779195703125 11.5901058984375  10.008957890625 12.360343671875  10.008957890625 13.31089921875  C 10.008957890625 14.2614547265625  10.7791956640625 15.030813125  11.7297512109375 15.030813125  Z M 25.858491953125 13.3126580078125  C 25.858451953125 12.3621025  25.0881342578125 11.5927441015625  24.1376986328125 11.5927441015625  C 23.187902578125 11.5927441015625  22.417744765625 12.3621424609375  22.417744765625 13.3126580078125  C 22.417744765625 14.2631735546875  23.187942578125 15.033451328125  24.1376986328125 15.033451328125  C 25.08817421875 15.033451328125  25.858491953125 14.26317359375  25.858491953125 13.3126580078125  Z M 25.4216680078125 23.9279009375  C 25.421668125 23.458059453125  25.040006875 23.0781969921875  24.570884921875 23.0781969921875  C 24.468474375 23.0781969921875  24.3730990234375 23.10349984375  24.2829601171875 23.1359178515625  L 24.27508546875 23.1359178515625  C 22.3415963671875 24.0102450390625  20.20152734375 24.4925180859375  17.9415795703125 24.4925180859375  C 15.6465755859375 24.4925180859375  13.47584734375 24.0199584765625  11.51877421875 23.1209680078125  L 11.50126609375 23.1209680078125  C 11.43307234375 23.1026604296875  11.3655980859375 23.07815703125  11.291208515625 23.07815703125  C 10.8238054296875 23.07815703125  10.4466211328125 23.4553412890625  10.4466211328125 23.9218250390625  C 10.4466211328125 24.2308955078125  10.668710546875 24.5234171484375  10.916462578125 24.6707972265625  C 10.9098270703125 24.66783921875  10.90483046875 24.6656407421875  10.9183412890625 24.671916484375  C 13.052294453125 25.6356230859375  15.464538984375 26.2185478515625  17.95816828125 26.2185478515625  C 20.467626875 26.2185478515625  22.8361010546875 25.64961359375  24.980527109375 24.6745546875  C 25.2430691015625 24.5301326171875  25.4216680078125 24.249123125  25.4216680078125 23.9279009375  Z " fill-rule="nonzero" fill="#7f7f7f" stroke="none" transform="matrix(1 0 0 1 527 550 )" />
  </g>
</svg>