<?xml version="1.0" encoding="utf-8"?>
<svg version="1.1" xmlns:xlink="http://www.w3.org/1999/xlink" width="34px" height="34px" xmlns="http://www.w3.org/2000/svg">
  <g transform="matrix(1 0 0 1 -591 -551 )">
    <path d="M 33.875 17.05859375  C 33.875 7.7265625  26.3125 0.1640625  16.98046875 0.1640625  C 7.6484375 0.1640625  0.0859375 7.7265625  0.0859375 17.05859375  C 0.0859375 26.390625  7.6484375 33.953125  16.98046875 33.953125  C 26.3125 33.953125  33.875 26.390625  33.875 17.05859375  Z M 17.2109375 17.078125  C 17.1796875 18.73828125  16.68359375 20.0390625  15.71875 20.96875  C 14.75390625 21.8984375  13.48828125 22.3671875  11.9296875 22.3671875  C 10.13671875 22.3671875  8.69921875 21.81640625  7.62109375 20.71484375  C 6.54296875 19.61328125  6.00390625 18.31640625  6.00390625 16.83203125  C 6.00390625 15.34375  6.5390625 14.05859375  7.61328125 12.96875  C 8.6875 11.8828125  10.09375 11.3359375  11.83984375 11.3359375  C 13.5859375 11.3359375  15.1640625 12.0078125  16.58203125 13.35546875  L 15.77734375 14.1328125  C 15.19140625 13.56640625  14.55078125 13.1328125  13.8515625 12.83203125  C 13.15234375 12.53125  12.43359375 12.37890625  11.6953125 12.37890625  C 10.953125 12.37890625  10.2109375 12.578125  9.47265625 12.98046875  C 8.73046875 13.37890625  8.15234375 13.91796875  7.73828125 14.59765625  C 7.32421875 15.27734375  7.1171875 16.0078125  7.1171875 16.80078125  C 7.1171875 18.03125  7.578125 19.1015625  8.5 20.01171875  C 9.421875 20.92578125  10.57421875 21.37890625  11.9609375 21.37890625  C 13.015625 21.37890625  13.91796875 21.0859375  14.67578125 20.4921875  C 15.4296875 19.90234375  15.8828125 19.1015625  16.02734375 18.0859375  L 12.67578125 18.0859375  L 12.67578125 17.078125  L 17.2109375 17.078125  Z M 20 11.59765625  L 20 22.1015625  L 19 22.1015625  L 19 11.59765625  L 20 11.59765625  Z M 27.7578125 11.59765625  L 27.7578125 12.63671875  L 23.546875 12.63671875  L 23.546875 15.9140625  L 27.76171875 15.9140625  L 27.76171875 16.953125  L 23.546875 16.953125  L 23.546875 22.1015625  L 22 22.1015625  L 22 11.59765625  L 27.7578125 11.59765625  Z " fill-rule="nonzero" fill="#7f7f7f" stroke="none" transform="matrix(1 0 0 1 591 551 )" />
  </g>
</svg>