<?xml version="1.0" encoding="utf-8"?>
<svg version="1.1" xmlns:xlink="http://www.w3.org/1999/xlink" width="40px" height="40px" xmlns="http://www.w3.org/2000/svg">
  <g transform="matrix(1 0 0 1 -650 -548 )">
    <path d="M 40 20  C 40 8.954296875  31.045703125 0  20 0  C 8.9542578125 0  0 8.954296875  0 20  C 0 31.045703125  8.9542578125 40  20 40  C 31.045703125 40  40 31.045703125  40 20  Z M 38 20  C 38 29.9412109375  29.94140625 38  20 38  C 10.0587890625 38  2 29.9412109375  2 20  C 2 10.0587890625  10.0587890625 2  20 2  C 29.94140625 2  38 10.0587890625  38 20  Z M 24.719296875 13.156640625  L 34.9503515625 29  L 5.049609375 29  L 11.6609375 19.1611328125  L 16.3539453125 26.3716796875  L 24.719296875 13.156640625  Z M 11.6609375 9.9673828125  C 12.4894140625 9.9673828125  13.1609375 10.6390625  13.1609375 11.4673828125  C 13.1609375 12.295703125  12.489453125 12.9673828125  11.6609375 12.9673828125  C 10.8326171875 12.9673828125  10.1609765625 12.295703125  10.1609765625 11.4673828125  C 10.1609765625 10.6390625  10.8326171875 9.9673828125  11.6609375 9.9673828125  Z " fill-rule="nonzero" fill="#7f7f7f" stroke="none" transform="matrix(1 0 0 1 650 548 )" />
  </g>
</svg>