<?xml version="1.0" encoding="utf-8"?>
<svg version="1.1" xmlns:xlink="http://www.w3.org/1999/xlink" width="10px" height="5px" xmlns="http://www.w3.org/2000/svg">
  <g transform="matrix(1 0 0 1 -724 -565 )">
    <path d="M 9.5 0.899999999999999  C 9.52 1  9.42 1.1  9.3 1.1  L 0.579999999999998 1.1  C 0.459999999999999 1.1  0.379999999999999 1  0.379999999999999 0.899999999999999  C 0.379999999999999 0.780000000000001  0.479999999999999 0.699999999999999  0.579999999999998 0.699999999999999  L 9.3 0.699999999999999  C 9.42 0.699999999999999  9.5 0.800000000000001  9.5 0.899999999999999  Z M 9.5 2.72  C 9.52 2.84  9.42 2.92  9.3 2.92  L 0.579999999999998 2.92  C 0.459999999999999 2.92  0.379999999999999 2.82  0.379999999999999 2.72  C 0.379999999999999 2.6  0.479999999999999 2.52  0.579999999999998 2.52  L 9.3 2.52  C 9.42 2.52  9.5 2.62  9.5 2.72  Z M 9.5 4.5  C 9.52 4.6  9.42 4.7  9.3 4.7  L 0.579999999999998 4.7  C 0.459999999999999 4.7  0.379999999999999 4.6  0.379999999999999 4.5  C 0.379999999999999 4.38  0.479999999999999 4.3  0.579999999999998 4.3  L 9.3 4.3  C 9.42 4.3  9.5 4.4  9.5 4.5  Z " fill-rule="nonzero" fill="#ffffff" stroke="none" transform="matrix(1 0 0 1 724 565 )" />
  </g>
</svg>