<?xml version="1.0" encoding="utf-8"?>
<svg version="1.1" xmlns:xlink="http://www.w3.org/1999/xlink" width="9px" height="6px" xmlns="http://www.w3.org/2000/svg">
  <g transform="matrix(1 0 0 1 -733 -570 )">
    <path d="M 8.24 1.04  C 8.22 1.18  8.12 1.32  8 1.32  L 0.32 1.32  C 0.199999999999999 1.32  0.0799999999999983 1.2  0.0799999999999983 1.04  C 0.0799999999999983 0.879999999999999  0.18 0.759999999999998  0.32 0.759999999999998  L 8 0.759999999999998  C 8.12 0.759999999999998  8.24 0.879999999999999  8.24 1.04  Z M 8.24 3.3  C 8.24 3.46  8.12 3.58  8 3.58  L 0.32 3.58  C 0.199999999999999 3.58  0.0799999999999983 3.46  0.0799999999999983 3.3  C 0.0799999999999983 3.14  0.18 3.02  0.32 3.02  L 8 3.02  C 8.12 3.02  8.24 3.14  8.24 3.3  Z M 4.4 5.58  C 4.4 5.74  4.28 5.86  4.16 5.86  L 0.32 5.86  C 0.199999999999999 5.86  0.0799999999999983 5.74  0.0799999999999983 5.58  C 0.0799999999999983 5.42  0.18 5.3  0.32 5.3  L 4.16 5.3  C 4.28 5.3  4.4 5.42  4.4 5.58  Z " fill-rule="nonzero" fill="#ffffff" stroke="none" transform="matrix(1 0 0 1 733 570 )" />
  </g>
</svg>