<?xml version="1.0" encoding="utf-8"?>
<svg version="1.1" xmlns:xlink="http://www.w3.org/1999/xlink" width="35px" height="36px" xmlns="http://www.w3.org/2000/svg">
  <g transform="matrix(1 0 0 1 -777 -550 )">
    <path d="M 34.7890625 17.94921875  C 34.7890625 27.41015625  27.09765625 35.1015625  17.63671875 35.1015625  C 8.1796875 35.1015625  0.484374999999999 27.40625  0.484374999999999 17.94921875  C 0.484374999999999 8.4921875  8.1796875 0.796874999999996  17.63671875 0.796874999999996  C 27.09375 0.796874999999996  34.7890625 8.4921875  34.7890625 17.94921875  Z M 33.4765625 17.94921875  C 33.48046875 9.21484375  26.37109375 2.109375  17.63671875 2.109375  C 8.90234375 2.109375  1.796875 9.21484375  1.796875 17.94921875  C 1.796875 26.68359375  8.90234375 33.7890625  17.63671875 33.7890625  C 26.37109375 33.7890625  33.4765625 26.68359375  33.4765625 17.94921875  Z " fill-rule="nonzero" fill="#7f7f7f" stroke="none" transform="matrix(1 0 0 1 777 550 )" />
  </g>
</svg>