<?xml version="1.0" encoding="utf-8"?>
<svg version="1.1" xmlns:xlink="http://www.w3.org/1999/xlink" width="33px" height="32px" xmlns="http://www.w3.org/2000/svg">
  <g transform="matrix(1 0 0 1 -780 -554 )">
    <path d="M 19.2265625 4.59375  C 19.2265625 7.125  17.16796875 9.1796875  14.63671875 9.1796875  C 12.10546875 9.1796875  10.046875 7.12109375  10.046875 4.58984375  C 10.046875 2.05859375  12.109375 0.00390625  14.63671875 0.00390625  C 17.1640625 0.00390625  19.2265625 2.0625  19.2265625 4.59375  Z M 17.9140625 4.59375  C 17.9140625 2.78515625  16.4453125 1.31640625  14.63671875 1.31640625  C 12.828125 1.31640625  11.359375 2.78515625  11.359375 4.59375  C 11.359375 6.40234375  12.828125 7.87109375  14.63671875 7.87109375  C 16.4453125 7.87109375  17.9140625 6.40234375  17.9140625 4.59375  Z M 19.2265625 23.3515625  C 19.2265625 25.8828125  17.16796875 27.9375  14.63671875 27.9375  C 12.10546875 27.9375  10.046875 25.87890625  10.046875 23.34765625  C 10.046875 20.81640625  12.109375 18.76171875  14.63671875 18.76171875  C 17.1640625 18.76171875  19.2265625 20.8203125  19.2265625 23.3515625  Z M 17.9140625 23.34765625  C 17.9140625 21.5390625  16.4453125 20.0703125  14.63671875 20.0703125  C 12.828125 20.0703125  11.359375 21.5390625  11.359375 23.34765625  C 11.359375 25.15625  12.828125 26.625  14.63671875 26.625  C 16.4453125 26.625  17.9140625 25.15625  17.9140625 23.34765625  Z M 9.93359375 13.94921875  C 9.93359375 16.4765625  7.875 18.5390625  5.34765625 18.5390625  C 2.81640625 18.5390625  0.757812499999999 16.48046875  0.757812499999999 13.94921875  C 0.757812499999999 11.41796875  2.81640625 9.359375  5.34765625 9.359375  C 7.87890625 9.359375  9.93359375 11.421875  9.93359375 13.94921875  Z M 8.625 13.94921875  C 8.625 12.140625  7.15234375 10.671875  5.34765625 10.671875  C 3.5390625 10.671875  2.0703125 12.140625  2.0703125 13.94921875  C 2.0703125 15.7578125  3.5390625 17.2265625  5.34765625 17.2265625  C 7.15625 17.2265625  8.625 15.7578125  8.625 13.94921875  Z M 28.828125 13.94921875  C 28.828125 16.4765625  26.76953125 18.5390625  24.23828125 18.5390625  C 21.70703125 18.5390625  19.6484375 16.48046875  19.6484375 13.94921875  C 19.6484375 11.41796875  21.70703125 9.359375  24.23828125 9.359375  C 26.76953125 9.359375  28.828125 11.421875  28.828125 13.94921875  Z M 27.515625 13.94921875  C 27.515625 12.140625  26.046875 10.671875  24.23828125 10.671875  C 22.4296875 10.671875  20.9609375 12.140625  20.9609375 13.94921875  C 20.9609375 15.7578125  22.4296875 17.2265625  24.23828125 17.2265625  C 26.046875 17.2265625  27.515625 15.7578125  27.515625 13.94921875  Z M 32.48828125 30.4375  C 32.48828125 30.80078125  32.1953125 31.09375  31.83203125 31  L 14.5703125 31  C 14.20703125 31.09375  13.9140625 30.80078125  13.9140625 30.4375  C 13.9140625 30.07421875  14.20703125 29.78125  14.5703125 29.78125  L 31.83203125 29.78125  C 32.1953125 29.78125  32.48828125 30.07421875  32.48828125 30.4375  Z " fill-rule="nonzero" fill="#7f7f7f" stroke="none" transform="matrix(1 0 0 1 780 554 )" />
  </g>
</svg>