<?xml version="1.0" encoding="utf-8"?>
<svg version="1.1" xmlns:xlink="http://www.w3.org/1999/xlink" width="42px" height="42px" xmlns="http://www.w3.org/2000/svg">
  <g transform="matrix(1 0 0 1 -527 -122 )">
    <path d="M 41.125 42  C 41.6828125 42  42.0984375 41.4859375  41.978125 40.9390625  C 41.190625 37.4609375  36.6953125 35.765625  35.1421875 35.21875  C 33.4359375 34.6171875  31.0078125 34.475  29.44375 34.125  C 28.546875 33.928125  27.2453125 33.4359375  26.8078125 32.9109375  C 26.3703125 32.3859375  26.6328125 27.51875  26.6328125 27.51875  C 26.6328125 27.51875  27.4421875 26.2609375  27.8796875 25.1453125  C 28.3171875 24.040625  28.7984375 21  28.7984375 21  C 28.7984375 21  29.6953125 21  30.0125 19.425  C 30.3515625 17.7078125  30.8875 17.040625  30.821875 15.7609375  C 30.75625 14.503125  30.0671875 14.5359375  30.0671875 14.5359375  C 30.0671875 14.5359375  30.734375 12.709375  30.8109375 8.925  C 30.909375 4.4296875  27.3875 0  21.0109375 0  C 14.546875 0  11.1015625 4.4296875  11.2 8.925  C 11.2875 12.709375  11.9328125 14.5359375  11.9328125 14.5359375  C 11.9328125 14.5359375  11.24375 14.503125  11.178125 15.7609375  C 11.1125 17.040625  11.6484375 17.7078125  11.9875 19.425  C 12.29375 21  13.2015625 21  13.2015625 21  C 13.2015625 21  13.6828125 24.040625  14.1203125 25.1453125  C 14.5578125 26.2609375  15.3671875 27.51875  15.3671875 27.51875  C 15.3671875 27.51875  15.6296875 32.3859375  15.1921875 32.9109375  C 14.7546875 33.4359375  13.453125 33.928125  12.55625 34.125  C 10.9921875 34.475  8.5640625 34.6171875  6.8578125 35.21875  C 5.3046875 35.765625  0.809375 37.4609375  0.021875 40.9390625  C -0.0984375 41.4859375  0.3171875 42  0.8859375 42  L 41.125 42  Z " fill-rule="nonzero" fill="#d7d7d7" stroke="none" transform="matrix(1 0 0 1 527 122 )" />
  </g>
</svg>