<?xml version="1.0" encoding="utf-8"?>
<svg version="1.1" xmlns:xlink="http://www.w3.org/1999/xlink" width="22px" height="22px" xmlns="http://www.w3.org/2000/svg">
  <g transform="matrix(1 0 0 1 -113 -21 )">
    <path d="M 21.6514285714285 21.742857142857  C 22.0285714285713 21.3828571428572  22.04 20.7885714285715  21.6857142857144 20.4114285714286  L 15.5828571428571 14.2514285714287  C 16.777142857143 12.7542857142858  17.4971428571428 10.8571428571428  17.4971428571428 8.79428571428577  C 17.4971428571428 3.9657142857143  13.5828571428569 0.0514285714285961  8.7485714285714 0.0514285714285961  C 3.91428571428587 0.0514285714285961  0 3.97142857142853  0 8.8  C 0 13.6285714285715  3.91428571428587 17.542857142857  8.7485714285714 17.542857142857  C 10.8400000000001 17.542857142857  12.7542857142858 16.8114285714285  14.2628571428573 15.5885714285714  L 20.3257142857141 21.7085714285715  C 20.5085714285712 21.902857142857  20.7600000000001 22  21.0057142857145 22  C 21.2400000000002 22  21.4742857142859 21.9142857142858  21.6514285714285 21.742857142857  Z M 13.6057142857142 13.6514285714284  C 12.3085714285717 14.9485714285716  10.5828571428572 15.662857142857  8.7485714285714 15.662857142857  C 6.91428571428564 15.662857142857  5.18857142857164 14.9485714285716  3.89142857142861 13.6514285714284  C 2.59428571428557 12.3542857142857  1.87999999999979 10.6285714285715  1.87999999999979 8.8  C 1.87999999999979 6.96571428571424  2.59428571428557 5.2399999999999  3.89142857142861 3.9485714285716  C 5.18857142857164 2.6514285714284  6.91428571428564 1.93714285714295  8.7485714285714 1.93714285714295  C 10.5828571428572 1.93714285714295  12.3085714285717 2.6514285714284  13.6057142857142 3.9485714285716  C 14.9028571428572 5.2457142857143  15.617142857143 6.97142857142847  15.617142857143 8.8  C 15.617142857143 10.6342857142858  14.9028571428572 12.3600000000001  13.6057142857142 13.6514285714284  Z " fill-rule="nonzero" fill="#606266" stroke="none" fill-opacity="0.752941176470588" transform="matrix(1 0 0 1 113 21 )" />
  </g>
</svg>