<?xml version="1.0" encoding="utf-8"?>
<svg version="1.1" xmlns:xlink="http://www.w3.org/1999/xlink" width="20px" height="4px" xmlns="http://www.w3.org/2000/svg">
  <g transform="matrix(1 0 0 1 -1286 -42 )">
    <path d="M 11.96875 1.97916666666667  C 11.96875 0.885416666666667  11.0833333333333 0  9.98958333333333 0  C 8.89583333333333 0  8.01041666666667 0.885416666666667  8.01041666666667 1.97916666666667  C 8.01041666666667 3.07291666666667  8.89583333333333 3.95833333333333  9.98958333333333 3.95833333333333  C 11.0833333333333 3.95833333333333  11.96875 3.07291666666667  11.96875 1.97916666666667  Z M 3.95833333333333 1.97916666666667  C 3.95833333333333 0.885416666666667  3.07291666666667 0  1.97916666666667 0  C 0.885416666666667 0  0 0.885416666666667  0 1.97916666666667  C 0 3.07291666666667  0.885416666666667 3.95833333333333  1.97916666666667 3.95833333333333  C 3.07291666666667 3.95833333333333  3.95833333333333 3.07291666666667  3.95833333333333 1.97916666666667  Z M 20 1.97916666666667  C 20 0.885416666666667  19.1145833333333 0  18.0208333333333 0  C 16.9270833333333 0  16.0416666666667 0.885416666666667  16.0416666666667 1.97916666666667  C 16.0416666666667 3.07291666666667  16.9270833333333 3.95833333333333  18.0208333333333 3.95833333333333  C 19.1145833333333 3.95833333333333  20 3.07291666666667  20 1.97916666666667  Z " fill-rule="nonzero" fill="#606266" stroke="none" transform="matrix(1 0 0 1 1286 42 )" />
  </g>
</svg>