<?xml version="1.0" encoding="utf-8"?>
<svg version="1.1" xmlns:xlink="http://www.w3.org/1999/xlink" width="40px" height="38px" xmlns="http://www.w3.org/2000/svg">
  <g transform="matrix(1 0 0 1 -22 -181 )">
    <path d="M 40 19  C 40 8.50432692307701  31.0480769230768 0  20 0  C 8.95192307692317 0  0 8.50432692307701  0 19  C 0 29.495673076923  8.95192307692317 38  20 38  C 31.0480769230768 38  40 29.495673076923  40 19  Z M 35.9230769230768 25.4947115384615  C 35.3846153846152 24.8552884615385  34.6346153846152 24.3711538461537  33.778846153846 24.10625  C 33 23.86875  31.5 23.795673076923  30.9423076923076 23.15625  C 30.6634615384616 22.8365384615385  30.846153846154 21.6399038461537  30.846153846154 21.6399038461537  C 33.2692307692308 21.5120192307693  33.8269230769232 21.0826923076922  33.8269230769232 21.0826923076922  C 34.2019230769232 20.8725961538463  34.028846153846 20.8360576923078  33.8365384615384 20.5254807692308  C 32.7884615384616 18.8538461538463  33.2596153846152 16.7346153846155  33.2115384615384 14.8985576923078  C 33.1730769230768 13.373076923077  32.75 11.7014423076922  31.2884615384616 10.8427884615385  C 30.5576923076924 10.4134615384615  29.3942307692308 10.2125  28.2692307692308 10.2125  C 27.3557692307692 10.2125  26.471153846154 10.3403846153845  25.8365384615384 10.5870192307693  C 21.7596153846152 12.1399038461537  24.1634615384616 17.2735576923078  22.7692307692308 20.2149038461537  C 22.528846153846 20.708173076923  22.1826923076924 20.8817307692307  22.7884615384616 21.1740384615385  C 22.7884615384616 21.1740384615385  23.5096153846152 21.5759615384615  25.5673076923076 21.7495192307693  C 25.5673076923076 21.7495192307693  25.596153846154 22.9004807692308  25.5673076923076 23.0192307692307  C 25.4615384615384 23.466826923077  24.4326923076924 23.7774038461537  24.0480769230768 23.8778846153845  C 23.7884615384616 23.941826923077  23.2115384615384 24.10625  22.471153846154 24.3985576923078  C 22.1153846153848 24.535576923077  22.1730769230768 25.0288461538463  22.5480769230768 25.0927884615385  C 22.9230769230768 25.1567307692307  23.3269230769232 25.248076923077  23.653846153846 25.3576923076922  C 23.653846153846 25.3576923076922  26.1923076923076 25.9057692307693  28.0769230769232 27.6413461538463  C 29.346153846154 28.8014423076922  29.8173076923076 30.1625  30 31.7153846153845  C 30.0480769230768 32.1264423076922  29.8365384615384 32.5283653846155  29.471153846154 32.7658653846155  L 28.9230769230768 33.0947115384615  C 28.7403846153848 33.1951923076922  28.5192307692308 33.0764423076922  28.5096153846152 32.8754807692307  C 28.5096153846152 30.1807692307693  26.7980769230768 27.8057692307693  24.1057692307692 26.9197115384615  C 22.8076923076924 26.4903846153845  21.403846153846 26.4629807692308  20.1057692307692 26.0336538461537  C 19.7115384615384 25.9057692307693  18.9326923076924 25.7504807692307  18.7692307692308 25.3211538461537  C 18.6153846153848 24.9009615384615  18.6153846153848 24.4076923076922  18.5865384615384 23.9692307692307  C 18.5673076923076 23.6221153846155  18.5576923076924 23.275  18.5576923076924 22.9278846153845  C 18.5576923076924 22.6995192307693  19.1730769230768 22.2153846153845  19.3076923076924 22.0052884615385  C 19.8269230769232 21.183173076923  19.875 20.0778846153845  19.971153846154 19.1461538461537  C 20.8076923076924 19.3653846153845  20.9134615384616 17.8947115384615  21.0576923076924 17.4471153846155  C 21.1634615384616 17.1365384615385  21.5384615384616 15.5379807692307  20.8076923076924 15.2913461538463  C 21.0480769230768 14.889423076923  21.1442307692308 14.3961538461537  21.2115384615384 13.9485576923078  C 21.403846153846 12.779326923077  21.4807692307692 11.5004807692307  21.1057692307692 10.3586538461537  C 20.3269230769232 7.98365384615374  17.9326923076924 6.65  15.403846153846 6.57692307692299  C 12.8365384615384 6.49471153846149  10.2596153846152 7.66394230769224  9.29807692307683 10.0298076923078  C 8.83653846153841 11.1807692307693  8.875 12.4322115384615  9.02884615384604 13.6379807692307  C 9.09615384615396 14.1860576923078  9.19230769230762 14.798076923077  9.48076923076921 15.2913461538463  C 8.86538461538476 15.5471153846155  9.04807692307683 16.908173076923  9.15384615384604 17.2370192307693  C 9.30769230769238 17.7028846153845  9.44230769230762 19.3745192307693  10.3173076923076 19.1461538461537  C 10.3942307692308 19.8860576923078  10.4807692307692 20.6442307692307  10.6923076923076 21.3658653846155  C 10.8365384615384 21.85  11.1346153846152 22.2610576923078  11.4807692307692 22.635576923077  C 11.653846153846 22.8182692307692  11.7403846153848 22.8365384615385  11.7307692307692 23.0740384615385  C 11.721153846154 23.7865384615385  11.7403846153848 24.5538461538463  11.5480769230768 25.248076923077  C 11.3557692307692 25.9423076923078  9.75 26.2346153846155  9.10576923076921 26.3625  C 7.68269230769238 26.6365384615385  6.35576923076921 26.791826923077  5.125 27.4129807692307  C 3.53846153846159 24.9009615384615  2.69230769230762 22.014423076923  2.69230769230762 19  C 2.69230769230762 14.6245192307693  4.53846153846159 10.4134615384615  7.80769230769238 7.33509615384626  C 11.028846153846 4.29326923076925  15.2980769230768 2.59423076923075  19.8365384615384 2.55769230769224  C 24.4134615384616 2.52115384615374  28.846153846154 4.21105769230776  32.125 7.26201923076925  C 35.471153846154 10.376923076923  37.3173076923076 14.560576923077  37.3173076923076 19  C 37.3173076923076 21.2745192307693  36.8365384615384 23.466826923077  35.9230769230768 25.4947115384615  Z " fill-rule="nonzero" fill="#606266" stroke="none" fill-opacity="0.8" transform="matrix(1 0 0 1 22 181 )" />
  </g>
</svg>