<?xml version="1.0" encoding="utf-8"?>
<svg version="1.1" xmlns:xlink="http://www.w3.org/1999/xlink" width="13px" height="10px" xmlns="http://www.w3.org/2000/svg">
  <g transform="matrix(1 0 0 1 -332 -13 )">
    <path d="M 0.146917808219218 2.67317073170732  C 0 2.82439024390247  -0.00445205479445576 3.08292682926825  0.142465753424607 3.24390243902436  L 1.41575342465747 4.62439024390246  C 1.55376712328762 4.77073170731712  1.77191780821922 4.78048780487809  1.91438356164382 4.63902439024391  C 3.17431506849316 3.41463414634144  4.7904109589041 2.74146341463409  6.49554794520554 2.74146341463409  C 8.20068493150684 2.74146341463409  9.81678082191777 3.40975609756096  11.0767123287671 4.63902439024391  C 11.2191780821917 4.78048780487809  11.4373287671233 4.77073170731712  11.5753424657535 4.62439024390246  L 12.8486301369863 3.24390243902436  C 12.9955479452055 3.08292682926825  12.9910958904109 2.82439024390247  12.8352739726028 2.67317073170732  C 11.1657534246575 1.019512195122  8.93527397260277 0.00975609756096674  6.49109589041093 0.00975609756096674  C 4.04691780821925 0.00975609756096674  1.8164383561644 1.019512195122  0.146917808219218 2.67317073170732  Z M 9.14452054794515 6.7658536585366  C 8.48561643835621 6.00487804878055  7.54178082191774 5.52195121951221  6.5 5.52195121951221  C 5.45821917808226 5.52195121951221  4.51438356164379 6.00000000000007  3.85547945205485 6.7658536585366  C 3.72191780821916 6.92195121951223  3.72636986301377 7.16097560975608  3.86438356164376 7.31219512195123  L 6.24178082191783 9.88292682926824  C 6.38424657534244 10.0390243902439  6.61575342465756 10.0390243902439  6.75821917808217 9.88292682926824  L 9.13561643835624 7.31219512195123  C 9.27363013698623 7.16097560975608  9.27808219178084 6.92195121951223  9.14452054794515 6.7658536585366  Z " fill-rule="nonzero" fill="#606266" stroke="none" transform="matrix(1 0 0 1 332 13 )" />
  </g>
</svg>