<?xml version="1.0" encoding="utf-8"?>
<svg version="1.1" xmlns:xlink="http://www.w3.org/1999/xlink" width="20px" height="7px" xmlns="http://www.w3.org/2000/svg">
  <g transform="matrix(1 0 0 1 -328 -8 )">
    <path d="M 19.8533333333333 4.71832061068704  C 17.2444444444444 1.79541984732828  13.6222222222223 0  10 0  C 6.37777777777774 0  2.75555555555563 1.79541984732828  0.155555555555566 4.71832061068704  C 0.00888888888888081 4.87862595419844  0.0044444444444404 5.15114503816792  0.142222222222244 5.32748091603056  L 1.32888888888889 6.81832061068707  C 1.4666666666667 6.99465648854953  1.69777777777775 7  1.84444444444443 6.83435114503813  C 2.87999999999996 5.68015267175565  4.06222222222217 4.76106870229008  5.36888888888886 4.10916030534352  C 6.83555555555555 3.37175572519088  8.3955555555555 3.00305343511455  10.0044444444444 3.00305343511455  C 11.6133333333334 3.00305343511455  13.1733333333333 3.37709923664117  14.64 4.10916030534352  C 15.9466666666667 4.76641221374055  17.1288888888889 5.68015267175565  18.1644444444444 6.83435114503813  C 18.3111111111111 7  18.5422222222222 6.99465648854953  18.68 6.81832061068707  L 19.8666666666666 5.32748091603056  C 20.0044444444444 5.15648854961839  20 4.88396946564891  19.8533333333333 4.71832061068704  Z " fill-rule="nonzero" fill="#606266" stroke="none" transform="matrix(1 0 0 1 328 8 )" />
  </g>
</svg>