<?xml version="1.0" encoding="utf-8"?>
<svg version="1.1" xmlns:xlink="http://www.w3.org/1999/xlink" width="25px" height="14px" xmlns="http://www.w3.org/2000/svg">
  <g transform="matrix(1 0 0 1 -370 -9 )">
    <path d="M 22.2916666666667 3  C 22.2916666666667 1.34999999999991  21.1666666666667 0  19.7916666666667 0  L 2.5 0  C 1.12499999999992 0  0 1.34999999999991  0 3  L 0 11  C 0 12.6500000000001  1.12499999999992 14  2.5 14  L 19.7916666666667 14  C 21.1666666666667 14  22.2916666666667 12.6500000000001  22.2916666666667 11  L 22.2916666666667 3  Z M 20.8333333333333 3  L 20.8333333333333 11  C 20.8333333333333 11.6875  20.3645833333333 12.25  19.7916666666667 12  L 2.5 12  C 1.92708333333333 12.25  1.45833333333333 11.6875  1.45833333333333 11  L 1.45833333333333 3  C 1.45833333333333 2.3125  1.92708333333333 1.75  2.5 2  L 19.7916666666667 2  C 20.3645833333333 1.75  20.8333333333333 2.3125  20.8333333333333 3  Z M 25 7  C 25 5.51874999999995  24.1666666666667 3.78749999999991  23.3333333333333 3.78749999999991  L 23.3333333333333 10.2125000000001  C 24.1666666666667 10.2125000000001  25 8.48125000000005  25 7  Z " fill-rule="nonzero" fill="#555555" stroke="none" transform="matrix(1 0 0 1 370 9 )" />
  </g>
</svg>