<?xml version="1.0" encoding="utf-8"?>
<svg version="1.1" xmlns:xlink="http://www.w3.org/1999/xlink" width="16px" height="16px" xmlns="http://www.w3.org/2000/svg">
  <g transform="matrix(1 0 0 1 -540 -727 )">
    <path d="M 4.45 0.49875  L 4.45 0.5  C 4.7625 0.5  5.02 0.7325  5.06 1.0325  L 5.06625 1.11625  L 5.06625 2.135  L 7.375 2.135  C 7.91375 2.135  8.3575 2.545  8.41125 3.07  L 8.41625 3.1775  L 8.41625 6.865  C 8.41583236818129 7.39861561137248  8.01208043078083 7.84554957416336  7.48125 7.9  L 7.375 7.90625  L 5.06625 7.905  L 5.06625 9.74625  C 5.06626700605827 9.74811898176146  5.0662755092194 9.74998803122025  5.0662755092194 9.75185709035005  C 5.0662755092194 10.0922025674333  4.79037098630263 10.3681070903501  4.4500255092194 10.3681070903501  C 4.13989151357619 10.3681070903501  3.87807620332807 10.1376305332463  3.83875 9.83  L 3.83375 9.74625  L 3.83375 7.905  L 1.54125 7.905  C 1.00758755381107 7.90528909780063  0.560095932626595 7.50206082153428  0.505000000000001 6.97125  L 0.5 6.8625  L 0.5 3.175  C 0.5 2.6375  0.91 2.1925  1.435 2.14  L 1.54125 2.13375  L 3.83375 2.13375  L 3.83375 1.115  C 3.83375 0.774999999999999  4.10875 0.49875  4.45 0.49875  Z M 13.23 1.3125  L 13.23 1.31375  C 14.44875 1.31375  15.445 2.265  15.5175 3.46625  L 15.52125 3.605  L 15.52125 6.47125  C 15.521263382814 6.47291971277137  15.5212700743016 6.47458947246982  15.5212700743016 6.47625923887222  C 15.5212700743016 6.82143720751647  15.2414480429459 7.10125923887222  14.8962700743016 7.10125923887222  C 14.5815361028271 7.10125923887222  14.3159018279467 6.86722620860625  14.27625 6.555  L 14.27125 6.47125  L 14.27125 3.605  C 14.2714731751528 3.07090607436742  13.8675561201699 2.62324933829681  13.33625 2.56875  L 13.23 2.56375  L 10.375 2.56375  C 10.0315132026743 2.56137982076529  9.75431261628419 2.28225985386638  9.75431261628419 1.93876487910448  C 9.75431261628419 1.62760843377107  9.9831977115531 1.3638420010396  10.29125 1.32  L 10.375 1.3125  L 13.23 1.3125  Z M 1.75 3.38625  L 1.75 3.3875  L 1.75 6.6575  L 3.83375 6.6575  L 3.83375 3.38625  L 1.75 3.38625  Z M 7.16625 3.38625  L 7.16625 3.3875  L 5.06625 3.3875  L 5.06625 6.6575  L 7.16625 6.6575  L 7.16625 3.38625  Z M 15.44625 14.63875  L 12.15875 7.2475  L 12.11375 7.16375  C 11.9988100056221 6.98455409611055  11.8005605489886 6.87618867915771  11.5876700271743 6.87618867915771  C 11.3322301623812 6.87618867915771  11.1024985676428 7.03163231472258  11.0075 7.26875  L 8.045 14.66125  L 8.01875 14.74125  C 7.9426967788841 15.0448708578788  8.10296587728531 15.3579298300891  8.39375 15.47375  L 8.47375 15.49875  C 8.77629764954281 15.5744149501863  9.08832435552407 15.4154680127805  9.205 15.12625  L 9.95125 13.26375  L 13.46625 13.26375  L 14.30375 15.1475  L 14.34375 15.2225  C 14.4573948119988 15.4078028142218  14.6591574887485 15.5207479923292  14.8765333757571 15.5207479923292  C 15.2217113444013 15.5207479923292  15.5015333757571 15.2409259609734  15.5015333757571 14.8957479923292  C 15.5015333757571 14.8071315039431  15.482688815364 14.7195280585849  15.44625 14.63875  Z M 12.90875 12.0125  L 10.45 12.0125  L 11.615 9.10625  L 12.90875 12.0125  Z M 0.5 10.4175  C 0.5 10.0723220313558  0.779822031355754 9.7925  1.125 9.7925  C 1.43716306766979 9.79272128360032  1.70129589056116 10.0232372017601  1.74375 10.3325  L 1.75 10.4175  L 1.75 12.44875  C 1.75 12.98875  2.16 13.4325  2.685 13.48625  L 2.79125 13.49125  L 5.645 13.49125  C 5.98895874429475 13.4929630382147  6.26688731388862 13.7722792388587  6.26688731388862 14.1162422489001  C 6.26688731388862 14.4273794858132  6.03802972319332 14.6911357796901  5.73 14.735  L 5.645 14.74125  L 2.79125 14.74125  C 1.57953649770593 14.7414906030926  0.577127063622588 13.7982397585617  0.50375 12.58875  L 0.5 12.44875  L 0.5 10.4175  Z " fill-rule="nonzero" fill="#263140" stroke="none" transform="matrix(1 0 0 1 540 727 )" />
  </g>
</svg>