<?xml version="1.0" encoding="utf-8"?>
<svg version="1.1" xmlns:xlink="http://www.w3.org/1999/xlink" width="16px" height="20px" xmlns="http://www.w3.org/2000/svg">
  <g transform="matrix(1 0 0 1 -544 -773 )">
    <path d="M 16 1.02941176470586  C 16 0.463235294117567  15.5418181818181 0  14.9818181818182 0  C 14.4218181818183 0  13.9636363636364 0.463235294117567  13.9636363636364 1.02941176470586  L 13.9636363636364 6.10294117647049  C 13.9636363636364 9.42647058823536  11.2872727272727 12.1323529411766  8 12.1323529411766  C 4.71272727272731 12.1323529411766  2.0363636363636 9.42647058823536  2.0363636363636 6.10294117647049  L 2.0363636363636 1.02941176470586  C 2.0363636363636 0.463235294117567  1.57818181818175 0  1.0181818181818 0  C 0.458181818181856 0  0 0.463235294117567  0 1.02941176470586  L 0 6.10294117647049  C 0 10.2132352941176  3.04727272727268 13.6176470588234  6.9818181818182 14.125  L 6.9818181818182 17.9411764705883  L 4.36363636363626 17.9411764705883  C 3.80363636363631 17.9411764705883  3.34545454545446 18.4044117647059  3.34545454545446 18.9705882352941  C 3.34545454545446 19.5367647058824  3.80363636363631 20  4.36363636363626 20  L 11.6363636363637 20  C 12.1963636363637 20  12.6545454545455 19.5367647058824  12.6545454545455 18.9705882352941  C 12.6545454545455 18.4044117647059  12.1963636363637 17.9411764705883  11.6363636363637 17.9411764705883  L 9.0181818181818 17.9411764705883  L 9.0181818181818 14.125  C 12.9527272727273 13.6176470588234  16 10.2132352941176  16 6.10294117647049  L 16 1.02941176470586  Z " fill-rule="nonzero" fill="#606266" stroke="none" transform="matrix(1 0 0 1 544 773 )" />
  </g>
</svg>