<?xml version="1.0" encoding="utf-8"?>
<svg version="1.1" xmlns:xlink="http://www.w3.org/1999/xlink" width="23px" height="23px" xmlns="http://www.w3.org/2000/svg">
  <g transform="matrix(1 0 0 1 -1342 -599 )">
    <path d="M 15.84033203125 21.7734375  C 14.465185546875 22.355078125  13.0048583984375 22.65  11.5 22.65  C 9.9951416015625 22.65  8.5348388671875 22.355078125  7.15966796875 21.7734375  C 5.8318359375 21.2117919921875  4.639501953125 20.407958984375  3.615771484375 19.3842529296875  C 2.5920654296875 18.3605224609375  1.78818359375 17.1681884765625  1.2265869140625 15.8403564453125  C 0.644946289062501 14.4652099609375  0.350024414062501 13.0048828125  0.350024414062501 11.5000244140625  C 0.350024414062501 9.995166015625  0.644946289062501 8.53486328125  1.2265869140625 7.1596923828125  C 1.788232421875 5.8318603515625  2.5920654296875 4.6395263671875  3.615771484375 3.6157958984375  C 4.639501953125 2.59208984375  5.8318359375 1.7882080078125  7.15966796875 1.226611328125  C 8.534814453125 0.644970703125  9.9951416015625 0.350048828125  11.5 0.350048828125  C 13.0048583984375 0.350048828125  14.4651611328125 0.644970703125  15.84033203125 1.226611328125  C 17.1681640625 1.7882568359375  18.360498046875 2.59208984375  19.384228515625 3.6157958984375  C 20.407958984375 4.6395263671875  21.21181640625 5.8318603515625  21.7734130859375 7.1596923828125  C 22.3550537109375 8.5348388671875  22.6499755859375 9.995166015625  22.6499755859375 11.5000244140625  C 22.6499755859375 13.0048828125  22.3550537109375 14.465185546875  21.7734130859375 15.8403564453125  C 21.211767578125 17.1681884765625  20.4079345703125 18.3605224609375  19.384228515625 19.3842529296875  C 18.3605224609375 20.4079833984375  17.1681640625 21.2118408203125  15.84033203125 21.7734375  Z M 20.9833251953125 11.5  C 20.9833251953125 6.2708740234375  16.7291259765625 2.0166748046875  11.5 2.0166748046875  C 6.270849609375 2.0166748046875  2.0166748046875 6.2708740234375  2.0166748046875 11.5  C 2.0166748046875 16.7291259765625  6.2708740234375 20.9833251953125  11.5 20.9833251953125  C 16.7291259765625 20.9833251953125  20.9833251953125 16.7291259765625  20.9833251953125 11.5  Z " fill-rule="nonzero" fill="#d7d7d7" stroke="none" transform="matrix(1 0 0 1 1342 599 )" />
  </g>
</svg>