<?xml version="1.0" encoding="utf-8"?>
<svg version="1.1" xmlns:xlink="http://www.w3.org/1999/xlink" width="13px" height="8px" xmlns="http://www.w3.org/2000/svg">
  <g transform="matrix(1 0 0 1 -1349 -648 )">
    <path d="M 5.7288103737571 7.65951883370536  C 5.67064527033026 7.72127698102679  5.5907199107777 7.75274135044643  5.51044023659446 7.75274135044643  C 5.44167549937855 7.75274135044643  5.37270408824574 7.72964271763393  5.31684194335938 7.68273166852679  L 0.763222480912642 3.8554123046875  C 0.640160469193893 3.7519681640625  0.627110207297586 3.57163328683036  0.734080881569603 3.45259969308036  C 0.841022010387074 3.33359467075893  1.02750466752486 3.32094609375  1.15059622469816 3.42441880580357  L 5.48652463378906 7.06874796316964  L 11.8248090886896 0.340452594866071  C 11.9346141934482 0.223903041294642  12.121362557706 0.215480189732142  12.2419149369673 0.321665345982142  C 12.3624673162287 0.427850502232143  12.3711477650036 0.608442327008926  12.261342660245 0.725020452008928  L 5.7288103737571 7.65951883370536  Z " fill-rule="nonzero" fill="#000000" stroke="none" transform="matrix(1 0 0 1 1349 648 )" />
  </g>
</svg>