<?xml version="1.0" encoding="utf-8"?>
<svg version="1.1" xmlns:xlink="http://www.w3.org/1999/xlink" width="23px" height="23px" xmlns="http://www.w3.org/2000/svg">
  <g transform="matrix(1 0 0 1 -1344 -640 )">
    <path d="M 15.5370961132813 21.4916005627441  C 14.2141705627441 22.0511848913574  12.8090469934082 22.3348987915039  11.3607414294434 22.3348987915039  C 9.91246461547852 22.3348987915039  8.50736976806641 22.0511848913574  7.1844154675293 21.491600534668  C 5.90674047973633 20.9511794287109  4.7594158581543 20.1776676416016  3.77416012451172 19.1924118798828  C 2.78890439086914 18.2071561181641  2.01533510375977 17.0597740527344  1.47494274780274 15.7821278149414  C 0.915358391113284 14.4591735144043  0.6316444909668 13.0540499450684  0.6316444909668 11.6057731311035  C 0.6316444909668 10.1574675952148  0.915358391113284 8.75237274780274  1.47494274780274 7.42941844726563  C 2.0153925756836 6.15177218139648  2.78890439086914 5.0043901159668  3.77416012451172 4.01913438232422  C 4.7594158581543 3.03387864868164  5.90679795166016 2.26030936157227  7.1844154675293 1.71991700561524  C 8.50736976806641 1.16036137084961  9.91246458740235 0.876647498779298  11.3607414294434 0.876647498779298  C 12.809046965332 0.876647498779298  14.2141705627441 1.16036139892578  15.5370961132813 1.71991700561524  C 16.8147711010742 2.26033811157227  17.9621244445801 3.03387864868164  18.9473801782227 4.01913438232422  C 19.9326359118652 5.0043901159668  20.7062051989746 6.15177220947266  21.2465688330078 7.42944719726563  C 21.8061531896973 8.75237274780274  22.0898670898438 10.1574675952148  22.0898670898438 11.6057731591797  C 22.0898670898438 13.0540499731445  21.8061531896973 14.4591735424805  21.2465688330078 15.7821278430176  C 20.7061477270508 17.0597741088867  19.9326359399414 18.2071561743164  18.9473801782227 19.192411907959  C 17.9621244165039 20.1776676416016  16.8147423510742 20.9512369287109  15.5370961132813 21.4916005627441  Z M 21.5152566748047 11.6057444091797  C 21.5152566748047 6.00656814453125  16.9599464440918 1.45122916381836  11.3607414294434 1.45122916381836  C 5.76150772094727 1.45122916381836  1.20625493408203 6.00653942260742  1.20625493408203 11.6057444091797  C 1.20625493408203 17.204949395752  5.7615651928711 21.760259654541  11.3607414294434 21.760259654541  C 16.9599176660156 21.760259654541  21.5152566748047 17.2049206738281  21.5152566748047 11.6057444091797  Z " fill-rule="nonzero" fill="#231815" stroke="none" transform="matrix(1 0 0 1 1344 640 )" />
  </g>
</svg>