<?xml version="1.0" encoding="utf-8"?>
<svg version="1.1" xmlns:xlink="http://www.w3.org/1999/xlink" width="28px" height="28px" xmlns="http://www.w3.org/2000/svg">
  <g transform="matrix(1 0 0 1 -857 -296 )">
    <path d="M 27.4166666666667 28  C 27.7885416666667 28  28.065625 27.6572916666667  27.9854166666667 27.2927083333333  C 27.4604166666667 24.9739583333333  24.4635416666667 23.84375  23.428125 23.4791666666667  C 22.290625 23.078125  20.671875 22.9833333333333  19.6291666666667 22.75  C 19.03125 22.61875  18.1635416666667 22.290625  17.871875 21.940625  C 17.5802083333333 21.590625  17.7552083333333 18.3458333333333  17.7552083333333 18.3458333333333  C 17.7552083333333 18.3458333333333  18.2947916666667 17.5072916666667  18.5864583333333 16.7635416666667  C 18.878125 16.0270833333333  19.1989583333333 14  19.1989583333333 14  C 19.1989583333333 14  19.796875 14  20.0083333333333 12.95  C 20.234375 11.8052083333333  20.5916666666667 11.3604166666667  20.5479166666667 10.5072916666667  C 20.5041666666667 9.66875  20.0447916666667 9.690625  20.0447916666667 9.690625  C 20.0447916666667 9.690625  20.4895833333333 8.47291666666667  20.540625 5.95  C 20.60625 2.953125  18.2583333333333 0  14.0072916666667 0  C 9.69791666666667 0  7.40104166666667 2.953125  7.46666666666667 5.95  C 7.525 8.47291666666667  7.95520833333333 9.690625  7.95520833333333 9.690625  C 7.95520833333333 9.690625  7.49583333333333 9.66875  7.45208333333333 10.5072916666667  C 7.40833333333333 11.3604166666667  7.765625 11.8052083333333  7.99166666666667 12.95  C 8.19583333333333 14  8.80104166666667 14  8.80104166666667 14  C 8.80104166666667 14  9.121875 16.0270833333333  9.41354166666667 16.7635416666667  C 9.70520833333333 17.5072916666667  10.2447916666667 18.3458333333333  10.2447916666667 18.3458333333333  C 10.2447916666667 18.3458333333333  10.4197916666667 21.590625  10.128125 21.940625  C 9.83645833333333 22.290625  8.96875 22.61875  8.37083333333333 22.75  C 7.328125 22.9833333333333  5.709375 23.078125  4.571875 23.4791666666667  C 3.53645833333333 23.84375  0.539583333333333 24.9739583333333  0.0145833333333333 27.2927083333333  C -0.065625 27.6572916666667  0.211458333333333 28  0.590625 28  L 27.4166666666667 28  Z " fill-rule="nonzero" fill="#606266" stroke="none" transform="matrix(1 0 0 1 857 296 )" />
  </g>
</svg>