<?xml version="1.0" encoding="utf-8"?>
<svg version="1.1" xmlns:xlink="http://www.w3.org/1999/xlink" width="30px" height="30px" xmlns="http://www.w3.org/2000/svg">
  <g transform="matrix(1 0 0 1 -858 -763 )">
    <path d="M 0 15  C 0 23.2860576923077  6.71394230769226 30  15 30  C 23.2860576923077 30  30 23.2860576923077  30 15  C 30 6.71394230769228  23.2860576923077 0  15 0  C 6.71394230769226 0  0 6.71394230769228  0 15  Z M 5.81971153846155 24.1802884615385  C 3.36778846153845 21.7283653846154  2.01923076923077 18.4687500000001  2.01923076923077 15  C 2.01923076923077 11.5312499999999  3.36778846153845 8.27163461538456  5.81971153846155 5.81971153846149  C 8.27163461538464 3.36778846153844  11.53125 2.01923076923084  15 2.01923076923084  C 18.46875 2.01923076923084  21.7283653846154 3.36778846153844  24.1802884615385 5.81971153846149  C 26.6322115384615 8.27163461538456  27.9807692307692 11.5312499999999  27.9807692307692 15  C 27.9807692307692 18.4687500000001  26.6322115384615 21.7283653846154  24.1802884615385 24.1802884615385  C 21.7283653846154 26.6322115384616  18.46875 27.9807692307692  15 27.9807692307692  C 11.53125 27.9807692307692  8.27163461538464 26.6322115384616  5.81971153846155 24.1802884615385  Z M 16.5133814783347 16.5133814783348  L 21.9727060322854 16.5133814783348  C 22.6175658453696 16.5133814783348  23.1451784197111 15.9857689039932  23.1451784197111 15.3409090909091  C 23.1451784197111 14.696049277825  22.6175658453696 14.1684367034834  21.9727060322854 14.1684367034834  L 16.5133814783347 14.1684367034834  L 16.5133814783347 8.70911214953273  C 16.5133814783347 8.06425233644865  15.9857689039932 7.53663976210709  15.3409090909091 7.53663976210709  C 14.696049277825 7.53663976210709  14.1684367034835 8.06425233644865  14.1684367034835 8.70911214953273  L 14.1684367034835 14.1684367034834  L 8.70911214953276 14.1684367034834  C 8.06425233644859 14.1684367034834  7.53663976210709 14.6081138487681  7.53663976210709 15.3409090909091  C 7.53663976210709 16.0737043330501  8.08623619371281 16.5133814783348  8.70911214953276 16.5133814783348  L 14.1684367034835 16.5133814783348  L 14.1684367034835 21.9727060322854  C 14.1684367034835 22.6688615123195  14.6813933729822 23.1451784197111  15.3409090909091 23.1451784197111  C 16.000424808836 23.1451784197111  16.5133814783347 22.6175658453695  16.5133814783347 21.9727060322854  L 16.5133814783347 16.5133814783348  Z " fill-rule="nonzero" fill="#606266" stroke="none" transform="matrix(1 0 0 1 858 763 )" />
  </g>
</svg>