<?xml version="1.0" encoding="utf-8"?>
<svg version="1.1" xmlns:xlink="http://www.w3.org/1999/xlink" width="8px" height="12px" xmlns="http://www.w3.org/2000/svg">
  <g transform="matrix(1 0 0 1 -599 -728 )">
    <path d="M 7.43700682932272 10.3857659595269  L 2.32884097035048 5.91260142731448  L 7.44102900716455 1.44295630071365  C 7.81911372428522 1.11213217323298  7.81911372428522 0.577182520285447  7.44102900716455 0.249877798416264  C 7.06294429004363 -0.0809463290644032  6.4515732581037 -0.0774269234529186  6.07348854098278 0.249877798416264  L 0.281552448919683 5.31430247336007  C -0.0844657346760219 5.63456838400626  -0.0925100903594154 6.14840160328477  0.253397204027806 6.47922573076548  L 6.06946636314121 11.5788444618242  C 6.25850872170141 11.7442565255646  6.50788374788765 11.825202854629  6.75323659623206 11.825202854629  C 6.99858944457648 11.825202854629  7.24796447076246 11.7442565255646  7.43700682932272 11.5788444618242  C 7.81509154644365 11.2480203343436  7.81509154644365 10.713070681396  7.43700682932272 10.3857659595269  Z " fill-rule="nonzero" fill="#606266" stroke="none" transform="matrix(1 0 0 1 599 728 )" />
  </g>
</svg>