<?xml version="1.0" encoding="utf-8"?>
<svg version="1.1" xmlns:xlink="http://www.w3.org/1999/xlink" width="12px" height="20px" xmlns="http://www.w3.org/2000/svg">
  <g transform="matrix(1 0 0 1 -45 -39 )">
    <path d="M 11.1555102439841 17.3096099325448  L 3.49326145552573 9.85433571219081  L 11.1615435107468 2.40492716785608  C 11.7286705864278 1.85355362205497  11.7286705864278 0.961970867142412  11.1615435107468 0.416462997360441  C 10.5944164350654 -0.134910548440672  9.67735988715555 -0.129044872421531  9.11023281147417 0.416462997360441  L 0.422328673379525 8.85717078893345  C -0.126698602014033 9.3909473066771  -0.138765135539123 10.2473360054746  0.380095806041709 10.7987095512758  L 9.10419954471182 19.2980741030404  C 9.38776308255212 19.573760875941  9.76182562183148 19.7086714243817  10.1298548943481 19.7086714243817  C 10.4978841668647 19.7086714243817  10.8719467061437 19.573760875941  11.1555102439841 19.2980741030404  C 11.7226373196655 18.7467005572393  11.7226373196655 17.8551178023267  11.1555102439841 17.3096099325448  Z " fill-rule="nonzero" fill="#606266" stroke="none" transform="matrix(1 0 0 1 45 39 )" />
  </g>
</svg>