<?xml version="1.0" encoding="utf-8"?>
<svg version="1.1" xmlns:xlink="http://www.w3.org/1999/xlink" width="11px" height="17px" xmlns="http://www.w3.org/2000/svg">
  <g transform="matrix(1 0 0 1 -378 -316 )">
    <path d="M 10.2258843903187 14.7131684426631  L 3.20215633423192 8.37618535536219  L 10.2314148848513 2.04418809267767  C 10.7512813708922 1.57552057874672  10.7512813708922 0.81767523707105  10.2314148848513 0.353993547756374  C 9.71154839880998 -0.114673966174571  8.87091322989259 -0.109688141558301  8.35104674385132 0.353993547756374  L 0.387134617264564 7.52859517059344  C -0.11614038517953 7.98230521067553  -0.127201374244196 8.71023560465342  0.348421155538233 9.17890311858443  L 8.34551624931916 16.4033629875843  C 8.60544949233944 16.6376967445499  8.94834015334552 16.7523707107244  9.28570031981909 16.7523707107244  C 9.62306048629266 16.7523707107244  9.96595114729838 16.6376967445499  10.2258843903187 16.4033629875843  C 10.74575087636 15.9346954736534  10.74575087636 15.1768501319777  10.2258843903187 14.7131684426631  Z " fill-rule="nonzero" fill="#606266" stroke="none" transform="matrix(1 0 0 1 378 316 )" />
  </g>
</svg>