<?xml version="1.0" encoding="utf-8"?>
<svg version="1.1" xmlns:xlink="http://www.w3.org/1999/xlink" width="21px" height="18px" xmlns="http://www.w3.org/2000/svg">
  <g transform="matrix(1 0 0 1 -870 -177 )">
    <path d="M 21 1.25  C 21 1.9375  20.60625 2.5  20.125 2.5  L 0.875 2.5  C 0.39375 2.5  0 1.9375  0 1.25  C 0 0.5625  0.39375 0  0.875 0  L 20.125 0  C 20.60625 0  21 0.5625  21 1.25  Z M 21 8.75  C 21 9.4375  20.60625 10  20.125 10  L 0.875 10  C 0.39375 10  0 9.4375  0 8.75  C 0 8.0625  0.39375 7.5  0.875 7.5  L 20.125 7.5  C 20.60625 7.5  21 8.0625  21 8.75  Z M 21 16.25  C 21 16.9375  20.60625 17.5  20.125 17.5  L 0.875 17.5  C 0.39375 17.5  0 16.9375  0 16.25  C 0 15.5625  0.39375 15  0.875 15  L 20.125 15  C 20.60625 15  21 15.5625  21 16.25  Z " fill-rule="nonzero" fill="#7f7f7f" stroke="none" transform="matrix(1 0 0 1 870 177 )" />
  </g>
</svg>