<?xml version="1.0" encoding="utf-8"?>
<svg version="1.1" xmlns:xlink="http://www.w3.org/1999/xlink" width="10px" height="14px" xmlns="http://www.w3.org/2000/svg">
  <g transform="matrix(1 0 0 1 -353 -9 )">
    <path d="M 9.36011904761901 10.1249999999999  C 9.59449404761901 9.91874999999997  9.57589285714284 9.59687500000009  9.31919642857136 9.40625  L 6.03422619047617 7  L 9.31547619047617 4.62187499999991  C 9.57217261904753 4.43437500000009  9.5907738095237 4.1125  9.3563988095237 3.90625000000003  L 5.01116071428568 0.112500000000061  C 4.92931547619049 0.0406249999999394  4.81026785714284 0  4.69122023809518 0  C 4.46428571428568 0  4.27827380952383 0.153125  4.27827380952383 0.33749999999997  L 4.27827380952383 5.62500000000006  L 1.06770833333333 3.33437499999997  C 0.803571428571483 3.14687499999994  0.405505952380988 3.16874999999994  0.171130952380988 3.38125000000003  C -0.0706845238095058 3.60000000000003  -0.0446428571428391 3.94062500000006  0.230654761904816 4.134375  L 4.27827380952383 7  L 0.256696428571483 9.84062499999994  C -0.0148809523809885 10.03125  -0.0446428571428391 10.3656249999999  0.193452380952345 10.5875  L 0.204613095238149 10.596875  C 0.438988095238149 10.815625  0.848214285714322 10.8375  1.11607142857148 10.64375  L 4.27827380952383 8.34374999999997  L 4.27827380952383 13.65  C 4.27827380952383 13.8437499999999  4.46800595238099 14  4.70610119047617 14  C 4.82514880952383 14  4.93675595238099 13.9593750000001  5.01860119047617 13.890625  L 9.36011904761901 10.1249999999999  Z M 5.49851190476185 2.19687499999997  C 5.50223214285716 2.13750000000009  5.58779761904753 2.11250000000003  5.63244047619049 2.15312499999997  L 7.96502976190469 4.21250000000003  C 7.99479166666667 4.23750000000009  7.99107142857136 4.27812500000003  7.95758928571419 4.30312500000009  L 5.625 5.95937499999997  C 5.57663690476185 5.99375  5.49851190476185 5.96562500000009  5.49851190476185 5.91249999999991  L 5.49851190476185 2.19687499999997  Z M 5.63616071428568 11.8531249999999  C 5.58779761904753 11.8937499999999  5.50223214285716 11.8656250000002  5.50223214285716 11.8093749999999  L 5.50223214285716 8.11249999999994  C 5.50223214285716 8.05937499999997  5.58035714285716 8.03125000000006  5.62872023809518 8.06562500000009  L 7.96130952380951 9.72187499999997  C 7.99479166666667 9.74374999999997  7.99479166666667 9.78437499999991  7.96875 9.81250000000003  L 5.63616071428568 11.8531249999999  Z " fill-rule="nonzero" fill="#555555" stroke="none" transform="matrix(1 0 0 1 353 9 )" />
  </g>
</svg>