<?xml version="1.0" encoding="utf-8"?>
<svg version="1.1" xmlns:xlink="http://www.w3.org/1999/xlink" width="30px" height="30px" xmlns="http://www.w3.org/2000/svg">
  <g transform="matrix(1 0 0 1 -820 -763 )">
    <path d="M 30 15  C 30 6.71394230769238  23.2860576923076 0  15 0  C 6.71394230769238 0  0 6.71394230769238  0 15  C 0 23.2860576923076  6.71394230769238 30  15 30  C 23.2860576923076 30  30 23.2860576923076  30 15  Z M 18.4615384615386 12.6923076923076  C 18.4615384615386 11.7331730769231  19.2331730769231 10.9615384615386  20.1923076923076 10.9615384615386  C 21.1514423076924 10.9615384615386  21.9230769230769 11.7331730769231  21.9230769230769 12.6923076923076  C 21.9230769230769 13.6514423076924  21.1514423076924 14.4230769230769  20.1923076923076 14.4230769230769  C 19.2331730769231 14.4230769230769  18.4615384615386 13.6514423076924  18.4615384615386 12.6923076923076  Z M 8.07692307692309 12.6923076923076  C 8.07692307692309 11.7331730769231  8.84855769230762 10.9615384615386  9.80769230769238 10.9615384615386  C 10.7668269230769 10.9615384615386  11.5384615384614 11.7331730769231  11.5384615384614 12.6923076923076  C 11.5384615384614 13.6514423076924  10.7668269230769 14.4230769230769  9.80769230769238 14.4230769230769  C 8.84855769230762 14.4230769230769  8.07692307692309 13.6514423076924  8.07692307692309 12.6923076923076  Z M 21.7860576923076 18.0504807692307  C 20.9350961538462 20.9927884615386  18.2235576923076 23.1490384615386  15 23.1490384615386  C 11.7764423076924 23.1490384615386  9.06490384615381 20.9927884615386  8.20673076923072 18.0504807692307  C 8.09855769230762 17.6826923076924  8.37259615384619 17.3076923076924  8.76201923076928 17  L 21.2307692307693 17  C 21.6129807692307 17.3076923076924  21.8942307692307 17.6754807692307  21.7860576923076 18.0504807692307  Z " fill-rule="nonzero" fill="#606266" stroke="none" transform="matrix(1 0 0 1 820 763 )" />
  </g>
</svg>