<?xml version="1.0" encoding="utf-8"?>
<svg version="1.1" xmlns:xlink="http://www.w3.org/1999/xlink" width="16px" height="9px" xmlns="http://www.w3.org/2000/svg">
  <g transform="matrix(1 0 0 1 -133 -859 )">
    <path d="M 15.334397265625 7.93754201171875  C 15.5775097460937 7.692514453125  15.57562828125 7.29686869140625  15.3306343164063 7.0537562109375  L 8.4287394140625 0.214991269531249  C 8.41872732421875 0.2049791796875  8.40498587890625 0.20185458984375  8.39436904296875 0.192480859374999  C 8.3918828125 0.189994628906249  8.39124447265625 0.18623169921875  8.3887582421875 0.18374546875  C 8.1431259375 -0.058762265625  7.7475137890625 -0.0575191406250006  7.5043676953125 0.187508398437499  L 0.66624109375 7.08876494140625  C 0.42312861328125 7.33439724609375  0.424976484375 7.7294046484375  0.6700040234375 7.97251712890625  C 0.79186263671875 8.09313263671875  0.95124982421875 8.1537763671875  1.10999865234375 8.1537763671875  C 1.2706289453125 8.1537763671875  1.431863984375 8.09188953125  1.5537562109375 7.96878779296875  L 7.95689423828125 1.50752587890625  L 14.450645078125 7.94127134765625  C 14.5725036914063 8.06188685546875  14.7312861132813 8.1225305859375  14.8906397070313 8.1225305859375  C 15.051874765625 8.1225305859375  15.2125050390625 8.06064375  15.334397265625 7.93754201171875  Z " fill-rule="nonzero" fill="#ffffff" stroke="none" transform="matrix(1 0 0 1 133 859 )" />
  </g>
</svg>