<?xml version="1.0" encoding="utf-8"?>
<svg version="1.1" xmlns:xlink="http://www.w3.org/1999/xlink" width="14px" height="14px" xmlns="http://www.w3.org/2000/svg">
  <g transform="matrix(1 0 0 1 -862 -1650 )">
    <path d="M 13.99658203125 6.55806640625  C 13.99658203125 5.3403271484375  13.662041015625 4.2007666015625  13.0799853515625 3.226103515625  L 12.6659619140625 3.640126953125  C 13.1527587890625 4.502041015625  13.430654296875 5.497578125  13.430654296875 6.55806640625  C 13.430654296875 9.8398876953125  10.7702490234375 12.500263671875  7.48845703125 12.500263671875  C 4.2066943359375 12.500263671875  1.5462890625 9.8398876953125  1.5462890625 6.55806640625  C 1.5462890625 3.2762744140625  4.2066943359375 0.615869140625001  7.48845703125 0.615869140625001  C 8.4744873046875 0.615869140625001  9.4043701171875 0.856132812500001  10.22291015625 1.281142578125  L 10.640888671875 0.863164062500001  C 9.7069482421875 0.345078125  8.632177734375 0.0499853515624999  7.4884716796875 0.0499853515624999  C 3.8941552734375 0.0499853515624999  0.980361328125001 2.96375  0.980361328125001 6.55806640625  C 0.980361328125001 10.15244140625  3.8941552734375 13.0661767578125  7.4884716796875 13.0661767578125  C 11.0828173828125 13.0661767578125  13.99658203125 10.15244140625  13.99658203125 6.55806640625  Z M 11.637216796875 2.0312744140625  L 12.0373828125 2.4314404296875  L 12.437548828125 2.8316064453125  L 13.0377978515625 2.231357421875  C 13.3693212890625 1.89986328125  13.3693212890625 1.3623828125  13.0377978515625 1.030859375  C 12.7063037109375 0.699335937500001  12.1688232421875 0.699335937500001  11.8372998046875 1.030859375  L 11.23705078125 1.6311083984375  L 11.637216796875 2.0312744140625  Z M 12.0373828125 1.6311083984375  L 12.2374658203125 1.431025390625  C 12.347958984375 1.3205322265625  12.527138671875 1.3205322265625  12.6376318359375 1.431025390625  C 12.748125 1.5415185546875  12.748125 1.7206982421875  12.6376318359375 1.83119140625  L 12.437548828125 2.0312744140625  L 12.0373828125 1.6311083984375  Z M 5.6832275390625 7.1849462890625  L 5.6816162109375 7.1832763671875  L 4.762529296875 9.293662109375  L 6.8728857421875 8.3745751953125  L 6.8837548828125 8.3854150390625  L 12.0373974609375 3.231787109375  L 11.6372314453125 2.83162109375  L 6.4835888671875 7.985263671875  L 6.0834228515625 7.585068359375  L 11.23705078125 2.4314404296875  L 10.83685546875 2.0312744140625  L 5.6832275390625 7.1849462890625  Z " fill-rule="nonzero" fill="#020202" stroke="none" transform="matrix(1 0 0 1 862 1650 )" />
  </g>
</svg>