<?xml version="1.0" encoding="utf-8"?>
<svg version="1.1" xmlns:xlink="http://www.w3.org/1999/xlink" width="28px" height="28px" xmlns="http://www.w3.org/2000/svg">
  <g transform="matrix(1 0 0 1 -84 0 )">
    <path d="M 98 0  C 105.84 0  112 6.16  112 14  C 112 21.84  105.84 28  98 28  C 90.16 28  84 21.84  84 14  C 84 6.16  90.16 0  98 0  Z " fill-rule="nonzero" fill="#ffffff" stroke="none" />
    <path d="M 98 0.5  C 105.56 0.5  111.5 6.44  111.5 14  C 111.5 21.56  105.56 27.5  98 27.5  C 90.44 27.5  84.5 21.56  84.5 14  C 84.5 6.44  90.44 0.5  98 0.5  Z " stroke-width="1" stroke="#f2f2f2" fill="none" />
  </g>
</svg>