<?xml version="1.0" encoding="utf-8"?>
<svg version="1.1" xmlns:xlink="http://www.w3.org/1999/xlink" width="28px" height="28px" xmlns="http://www.w3.org/2000/svg">
  <g transform="matrix(1 0 0 1 -492 -87 )">
    <path d="M 26.8834201660156 26.933814921875  C 27.2664202929687 26.5810515722656  27.2865781835938 25.9863934179688  26.9338148925781 25.608432734375  L 22.4637997753906 20.8259701074219  C 24.2780111035156 18.6438770410156  25.2707878613281 15.9225600488281  25.2707878613281 13.0601377636719  C 25.2707878613281 6.34251640625  19.8029565136719 0.874685058593751  13.0802956835938 0.874685058593751  C 6.36267432617188 0.874685058593751  0.894842978515626 6.34251640625  0.894842978515626 13.0601377636719  C 0.894842978515626 19.7777591210937  6.36267432617188 25.24559046875  13.0802956835938 25.24559046875  C 14.8390727832031 25.24559046875  16.5373761523438 24.8777087304688  18.1248110644531 24.1520241992188  C 18.5985217871094 23.9353267285156  18.8051403125 23.3809843847656  18.5884428417969 22.9123131347656  C 18.3717453710937 22.4386024121094  17.8174030273437 22.2319838867188  17.3487317773437 22.4486813574219  C 16.0031916992187 23.0584579296875  14.5669410839844 23.3709054394531  13.0802956835937 23.3709054394531  C 7.39576686523437 23.3709054394531  2.7695280078125 18.7446665820313  2.7695280078125 13.0601377636719  C 2.7695280078125 7.3756089453125  7.39576686523437 2.74937008789063  13.0802956835937 2.74937008789063  C 18.7648245019531 2.74937008789063  23.391063359375 7.3756089453125  23.391063359375 13.0601377636719  C 23.391063359375 15.7360994726563  22.368049765625 18.2709558300781  20.5185620996094 20.2010751171875  C 20.1607593066406 20.573996328125  20.1708382519531 21.1686544824219  20.5437594921875 21.5264572753906  C 20.5739963574219 21.5516546679688  20.6092726660156 21.5617336132813  20.63950953125 21.5869309765625  C 20.6647069238281 21.6222073144531  20.6798253417969 21.6675625976563  20.7100622070312 21.7028389355469  L 25.5580380078125 26.8884596386719  C 25.739459140625 27.0849991894531  25.9914329492187 27.1857887304688  26.2434067285156 27.1857887304688  C 26.4752226171875 27.1857887304688  26.7019990332031 27.1001176367188  26.8834201660156 26.933814921875  Z " fill-rule="nonzero" fill="#575b66" stroke="none" transform="matrix(1 0 0 1 492 87 )" />
  </g>
</svg>