<?xml version="1.0" encoding="utf-8"?>
<svg version="1.1" xmlns:xlink="http://www.w3.org/1999/xlink" width="12px" height="12px" viewBox="402 641  12 12" xmlns="http://www.w3.org/2000/svg">
  <path d="M 408 641  C 411.36 641  414 643.64  414 647  C 414 650.36  411.36 653  408 653  C 404.64 653  402 650.36  402 647  C 402 643.64  404.64 641  408 641  Z " fill-rule="nonzero" fill="#f0f0f0" stroke="none" />
  <path d="M 408 641.5  C 411.08 641.5  413.5 643.92  413.5 647  C 413.5 650.08  411.08 652.5  408 652.5  C 404.92 652.5  402.5 650.08  402.5 647  C 402.5 643.92  404.92 641.5  408 641.5  Z " stroke-width="1" stroke="#797979" fill="none" />
  <path d="M 408 650  C 406.32 650  405 648.68  405 647  C 405 645.32  406.32 644  408 644  C 409.68 644  411 645.32  411 647  C 411 648.68  409.68 650  408 650  " fill-rule="nonzero" fill="#797979" stroke="none" />
</svg>