<?xml version="1.0" encoding="utf-8"?>
<svg version="1.1" xmlns:xlink="http://www.w3.org/1999/xlink" width="12px" height="12px" viewBox="502 641  12 12" xmlns="http://www.w3.org/2000/svg">
  <path d="M 508 641  C 511.36 641  514 643.64  514 647  C 514 650.36  511.36 653  508 653  C 504.64 653  502 650.36  502 647  C 502 643.64  504.64 641  508 641  Z " fill-rule="nonzero" fill="#ffffff" stroke="none" />
  <path d="M 508 641.5  C 511.08 641.5  513.5 643.92  513.5 647  C 513.5 650.08  511.08 652.5  508 652.5  C 504.92 652.5  502.5 650.08  502.5 647  C 502.5 643.92  504.92 641.5  508 641.5  Z " stroke-width="1" stroke="#797979" fill="none" />
  <path d="M 508 650  C 506.32 650  505 648.68  505 647  C 505 645.32  506.32 644  508 644  C 509.68 644  511 645.32  511 647  C 511 648.68  509.68 650  508 650  " fill-rule="nonzero" fill="#797979" stroke="none" />
</svg>