<?xml version="1.0" encoding="utf-8"?>
<svg version="1.1" xmlns:xlink="http://www.w3.org/1999/xlink" width="36px" height="36px" xmlns="http://www.w3.org/2000/svg">
  <g transform="matrix(1 0 0 1 -303 -577 )">
    <path d="M 35.443013671875 17.9363231640625  C 35.443013671875 8.3094101953125  27.6106040234375 0.477080546875  17.9836910546875 0.477080546875  C 8.3568180859375 0.477080546875  0.5244484375 8.3094501953125  0.5244484375 17.9363231640625  C 0.5244484375 27.5631961328125  8.3568180859375 35.39560578125  17.9837310546875 35.39560578125  C 27.6106440234375 35.39560578125  35.443013671875 27.5632361328125  35.443013671875 17.9363231640625  Z M 26.833331015625 18.4191956640625  C 26.833331015625 23.354329609375  22.8179733984375 27.3695274609375  17.8828794140625 27.3695274609375  C 14.03452859375 27.3695274609375  10.755231953125 24.923306015625  9.4933675 21.5079416015625  L 9.506158828125 21.50270515625  C 9.4277319921875 21.3450120703125  9.3740084375 21.1736882421875  9.3740084375 20.9856157421875  C 9.3740084375 20.335336640625  9.9011310546875 19.8081740625  10.5514501171875 19.8081740625  C 11.0744955078125 19.8081740625  11.502965 20.1549389453125  11.6565008984375 20.6267390625  L 11.6730096875 20.6199836328125  C 12.5819933984375 23.1763304296875  15.01854140625 25.0146440625  17.8828794140625 25.0146440625  C 21.5198535546875 25.0146440625  24.47840765625 22.0560899609375  24.47840765625 18.4191158203125  C 24.47840765625 14.7821416796875  21.5198535546875 11.823587578125  17.8828794140625 11.823587578125  C 17.084740546875 11.823587578125  16.32529546875 11.9790821484375  15.616735859375 12.240345  L 16.4467730859375 13.8318659375  C 16.5439072265625 13.936475  16.6037066796875 14.07729953125  16.6037066796875 14.2319946484375  C 16.6037066796875 14.56081171875  16.2754092578125 14.814879453125  16.0034736328125 14.8206755078125  C 15.999476328125 14.8206755078125  15.9953991015625 14.8206755078125  15.9914018359375 14.8206755078125  C 15.98280765625 14.8206755078125  15.9746931640625 14.8206755078125  15.966098984375 14.820155859375  L 10.0840869921875 14.56768703125  C 9.8742292578125 14.5585332421875  9.6844779296875 14.4383746875  9.5873437890625 14.2515413671875  C 9.4902096484375 14.0652276953125  9.499963046875 13.8410196875  9.612646640625 13.6634201171875  L 12.772424296875 8.69546839843749  C 12.885107890625 8.51838847656249  13.085172265625 8.4160978125  13.2945103125 8.42357273437499  C 13.504368046875 8.43272652343749  13.6940394140625 8.55296499999999  13.79117359375 8.7397983203125  L 14.5169615234375 10.1314148046875  C 15.55717625 9.7073823046875  16.692086796875 9.4687840625  17.8829194140625 9.4687840625  C 22.8180134375 9.4687840625  26.833331015625 13.48406171875  26.833331015625 18.4191956640625  Z " fill-rule="nonzero" fill="#272636" stroke="none" transform="matrix(1 0 0 1 303 577 )" />
  </g>
</svg>