<?xml version="1.0" encoding="utf-8"?>
<svg version="1.1" xmlns:xlink="http://www.w3.org/1999/xlink" width="14px" height="15px" xmlns="http://www.w3.org/2000/svg">
  <g transform="matrix(1 0 0 1 -717 -723 )">
    <path d="M 0.25636362304688 6.49681817382813  L 6.19636362304687 0.556818173828123  C 6.47477932033151 0.278878943528218  6.92567520115286 0.278878943528218  7.2040908984375 0.556818173828125  L 13.1440908984375 6.49681817382812  C 13.264876948621 6.6283939746612  13.3318957912335 6.8005022607511  13.3318957912335 6.97911206250846  C 13.3318957912335 7.37299150895966  13.0125934115128 7.69229388868034  12.6187139650616 7.69229388868034  C 12.4394380113838 7.69229388868034  12.2667379428732 7.6247753374075  12.135 7.50318182617187  L 7.41136362304688 2.77954544921875  L 7.41136362304688 13.9995454492187  C 7.41136362304688 14.35  7.16045452148438 14.6404545507812  6.82772727539063 14.7004545507812  L 6.69954544921875 14.7127272753906  C 6.30641782096415 14.7127272753918  5.9877259691937 14.3940354236214  5.9877259691937 14.0009091015637  C 5.9877259691937 14.0004545504698  5.98772640459288 13.9999999994786  6 13.9995454492187  L 6 2.7809091015625  L 1.2640908984375 7.50318182617188  C 1.02041001443882 7.74643845605352  0.637727317303561 7.78086268352024  0.354545449218753 7.585  L 0.25636362304688 7.50318182617188  C -0.0214192157507114 7.22523380298933  -0.0214192157507114 6.77476619701068  0.25636362304688 6.49681817382813  Z " fill-rule="nonzero" fill="#70b603" stroke="none" transform="matrix(1 0 0 1 717 723 )" />
  </g>
</svg>