<?xml version="1.0" encoding="utf-8"?>
<svg version="1.1" xmlns:xlink="http://www.w3.org/1999/xlink" width="24px" height="24px" xmlns="http://www.w3.org/2000/svg">
  <g transform="matrix(1 0 0 1 -711 -718 )">
    <path d="M 2.78727272460937 0.797727275390625  L 3 1  L 21 1  C 22.2218181738281 0.788181826171875  23.2131818261719 1.77818182617187  23 3  L 23 21  C 23.2131818261719 22.2218181738281  22.221818203125 23.2131818261719  21 23  L 3 23  C 1.77822600210666 23.2124290297806  0.788181594254041 22.2217742298112  1 21  L 1 3  C 0.788181826171875 1.85045455078125  1.665 0.90545455078125  2.78727272460937 0.797727275390625  Z M 21 2.21318182617188  L 3 2.21318182617188  C 2.56523118106831 2.21318117546827  2.21257037782326 2.56523183177143  2.21181817382813 3  L 2.21181817382813 21  C 2.21181817382813 21.435  2.56636362304688 21.7881818261719  3 21.7881818261719  L 21 21.7881818261719  C 21.4353008026885 21.7881818261719  21.7881818261719 21.4353008026885  21.7881818261719 21  L 21.7881818261719 3  C 21.7874296221767 2.56523183177143  21.4347688189317 2.21318117546827  21 2.21318182617188  Z " fill-rule="nonzero" fill="#70b603" stroke="none" transform="matrix(1 0 0 1 711 718 )" />
  </g>
</svg>