<svg width="36" height="36" viewBox="0 0 36 36" fill="none" xmlns="http://www.w3.org/2000/svg">
<path d="M9 18C9 22.9672 13.0328 27 18 27C22.9672 27 27 22.9672 27 18C27 13.0328 22.9672 9 18 9C13.0328 9 9 13.0328 9 18V18" stroke="#888888" stroke-width="1.8"/>
<path d="M13.8 16C13.8 16.6623 14.3377 17.2 15 17.2C15.6623 17.2 16.2 16.6623 16.2 16C16.2 15.3378 15.6623 14.8 15 14.8C14.3377 14.8 13.8 15.3378 13.8 16Z" fill="#888888"/>
<path d="M19.8 16C19.8 16.6623 20.3377 17.2 21 17.2C21.6623 17.2 22.2 16.6623 22.2 16C22.2 15.3378 21.6623 14.8 21 14.8C20.3377 14.8 19.8 15.3378 19.8 16Z" fill="#888888"/>
<path d="M14 20.5C15 22.5 21 22.5 22 20.5" stroke="#888888" stroke-width="1.6" stroke-linecap="round"/>
</svg>
