<?xml version="1.0" encoding="utf-8"?>
<svg version="1.1" xmlns:xlink="http://www.w3.org/1999/xlink" width="16px" height="16px" xmlns="http://www.w3.org/2000/svg">
  <g transform="matrix(1 0 0 1 -854 -689 )">
    <path d="M 14.795 13.67  L 9.08 8  L 14.795 2.285  C 15.08 2  15.08 1.535  14.795 1.205  L 14.75 1.16  C 14.465 0.875  14 0.875  13.715 1.16  L 8 6.92  L 2.285 1.205  C 2 0.92  1.535 0.92  1.25 1.205  L 1.205 1.25  C 0.92 1.535  0.92 2  1.205 2.33  L 6.92 8  L 1.205 13.715  C 0.92 14  0.92 14.465  1.205 14.795  L 1.25 14.84  C 1.535 15.125  2 15.125  2.285 14.84  L 8 9.08  L 13.715 14.795  C 14 15.08  14.465 15.08  14.75 14.795  L 14.795 14.75  C 15.08 14.465  15.08 14  14.795 13.67  Z " fill-rule="nonzero" fill="#02a7f0" stroke="none" transform="matrix(1 0 0 1 854 689 )" />
  </g>
</svg>