<?xml version="1.0" encoding="utf-8"?>
<svg version="1.1" xmlns:xlink="http://www.w3.org/1999/xlink" width="24px" height="28px" xmlns="http://www.w3.org/2000/svg">
  <g transform="matrix(1 0 0 1 -519 -683 )">
    <path d="M 12.0340625097656 0.8825  L 17.5240625097656 4.0521875  C 17.9724389096156 4.31107848174705  18.1260587627005 4.8844247093809  17.8671875097656 5.3328125  L 8.19218750976562 22.0909375097656  C 8.11702411925419 22.2210973017364  8.0116673381682 22.3312771194147  7.88499999023437 22.4121875  L 0.560000009765623 27.095  L 0.953750009765623 18.41  C 0.960477519813186 18.2600070591344  1.00313213918365 18.1138238831128  1.078125 17.9837500097656  L 10.753125 1.225625  C 10.9205770553106 0.935501091641584  11.2301049825899 0.756767818215998  11.5650856880475 0.756767818215998  C 11.7297401349152 0.756767818215998  11.8914905832661 0.800132939547995  12.0340625097656 0.8825  Z M 2.25718749023437 24.1553125097656  L 6.45 21.4740625097656  L 2.48187500976563 19.1834375  L 2.25718749023437 24.1553125097656  Z M 14.3262500097656 8.33999999023438  L 9.91875 5.79562499023438  L 3.04374999023437 17.7034375097656  L 7.45093749023437 20.2478125097656  L 14.3259375 8.33999999023437  Z M 15.1074999902344 6.98687500976562  L 16.2012500097656 5.0928125  L 11.79375 2.5484375  L 10.7000000097656 4.4421875  L 15.1074999902344 6.98687500976562  Z M 17.4687500097656 15.5624999902344  L 17.3959374902344 15.56375  C 16.3031270647491 15.6029482370754  15.4374701321747 16.5002368059369  15.4374999902344 17.5937500097656  L 15.4374999902344 19.3124999902344  L 13.7187500097656 19.3124999902344  C 12.5969215877684 19.3124999902344  11.6874999902344 20.2219215877684  11.6874999902344 21.3437499804688  L 11.68875 21.4165625  C 11.7279482370754 22.5093729254853  12.6252368059369 23.3750298580597  13.7187500097656 23.375  L 15.4374999902344 23.375  L 15.4374999902344 25.0937500097656  C 15.4374999902344 25.7708333398438  15.4374999902344 24.4166666796875  15.4374999902344 25.0937500097656  C 15.4374999902344 26.215578402466  16.3469215877684 27.125  17.4687499804688 27.125  L 17.5415625 27.1237499902344  C 18.6343729141347 27.0845517535657  19.5000298422876 26.1872632022368  19.5 25.0937500097656  L 19.5 23.375  L 21.2187500097656 23.375  C 22.340578402466 23.375  23.25 22.465578402466  23.25 21.3437500097656  L 23.2487499902344 21.2709374902344  C 23.2095517535657 20.1781270760997  22.3122632022368 19.3124701479468  21.2187500097656 19.3124999902344  L 19.5 19.3124999902344  L 19.5 17.5937500097656  C 19.5 16.4719215877684  18.590578402466 15.5624999902344  17.4687500097656 15.5624999902344  Z M 16.6875 17.5937500097656  C 16.6875 17.1622775435669  17.0372775435669 16.8125  17.4687500097656 16.8125  C 17.9002224645232 16.8125000161802  18.2499999902344 17.1622775550081  18.2499999902344 17.5937500097656  L 18.2499999902344 20.5625  L 21.2187500097656 20.5625  C 21.650163387261 20.56258354284  21.9998487311226 20.9123366095328  21.9998487311226 21.3437499951172  C 21.9998487311226 21.7751633807016  21.650163387261 22.1249164473943  21.2187500097656 22.1249999902344  L 18.2499999902344 22.1249999902344  L 18.2499999902344 25.0937500097656  C 18.2499164473943 25.525163387261  17.9001633807016 25.8748487311226  17.4687499951172 25.8748487311226  C 17.0373366095328 25.8748487311226  16.68758354284 25.525163387261  16.6875 25.0937500097656  L 16.6875 22.1249999902344  L 13.7187500097656 22.1249999902344  C 13.2873366322702 22.1249164473943  12.9376512884087 21.7751633807016  12.9376512884087 21.3437499951172  C 12.9376512884087 20.9123366095328  13.2873366322702 20.56258354284  13.7187500097656 20.5625  L 16.6875 20.5625  L 16.6875 17.5937500097656  Z " fill-rule="nonzero" fill="#02a7f0" stroke="none" transform="matrix(1 0 0 1 519 683 )" />
  </g>
</svg>