<?xml version="1.0" encoding="utf-8"?>
<svg version="1.1" xmlns:xlink="http://www.w3.org/1999/xlink" width="22px" height="28px" xmlns="http://www.w3.org/2000/svg">
  <g transform="matrix(1 0 0 1 -519 -683 )">
    <path d="M 11.5650856880475 0.756767818215998  C 11.7297401349152 0.756767818215998  11.8914905832661 0.800132939547995  12.0340625097656 0.8825  L 17.5240625097656 4.0521875  C 17.9724389096156 4.31107848174705  18.1260587627005 4.88442470938089  17.8671875097656 5.3328125  L 8.19218750976563 22.0909375097656  C 8.11702411925419 22.2210973017364  8.0116673381682 22.3312771194147  7.88499999023438 22.4121875  L 0.560000009765627 27.095  L 0.953750009765627 18.41  C 0.96047751981319 18.2600070591344  1.00313213918365 18.1138238831128  1.078125 17.9837500097656  L 10.753125 1.225625  C 10.9205770553106 0.935501091641584  11.2301049825899 0.756767818215998  11.5650856880475 0.756767818215998  Z M 16.6875 17.5937500097656  C 16.6875 17.1622775435669  17.0372775435669 16.8125  17.4687500097656 16.8125  C 17.9002224645232 16.8125000161802  18.2499999902344 17.1622775550081  18.2499999902344 17.5937500097656  L 18.2499999902344 20.5625  L 21.2187500097656 20.5625  C 21.650163387261 20.56258354284  21.9998487311226 20.9123366095328  21.9998487311226 21.3437499951172  C 21.9998487311226 21.7751633807016  21.650163387261 22.1249164473943  21.2187500097656 22.1249999902344  L 18.2499999902344 22.1249999902344  L 18.2499999902344 25.0937500097656  C 18.2499164473943 25.525163387261  17.9001633807016 25.8748487311226  17.4687499951172 25.8748487311226  C 17.0373366095328 25.8748487311226  16.68758354284 25.525163387261  16.6875 25.0937500097656  L 16.6875 22.1249999902344  L 13.7187500097656 22.1249999902344  C 13.2873366322702 22.1249164473943  12.9376512884087 21.7751633807016  12.9376512884087 21.3437499951172  C 12.9376512884087 20.9123366095328  13.2873366322702 20.56258354284  13.7187500097656 20.5625  L 16.6875 20.5625  L 16.6875 17.5937500097656  Z " fill-rule="nonzero" fill="#02a7f0" stroke="none" transform="matrix(1 0 0 1 519 683 )" />
  </g>
</svg>