<svg class="icon" viewBox="0 0 1024 1024" version="1.1" xmlns="http://www.w3.org/2000/svg" p-id="5307" height="128" width="128"><path d="M367.58069 186.615172a30.896552 30.896552 0 0 0-30.861242-30.896551H181.812966a30.896552 30.896552 0 0 0-30.896552 30.896551v154.906483c0 17.054897 13.841655 30.896552 30.896552 30.896552h154.906482a30.896552 30.896552 0 0 0 30.896552-30.896552V186.615172z m61.793103 154.906483a92.689655 92.689655 0 0 1-92.654345 92.689655H181.812966a92.689655 92.689655 0 0 1-92.689656-92.689655V186.615172A92.689655 92.689655 0 0 1 181.812966 93.925517h154.906482a92.689655 92.689655 0 0 1 92.689655 92.689655v154.906483zM849.531586 611.716414a30.861241 30.861241 0 0 0-27.753931-30.72l-3.177931-0.176552h-211.756138a30.896552 30.896552 0 0 0-30.896552 30.896552v211.756138c0 17.054897 13.841655 30.896552 30.896552 30.896551h211.791448a30.896552 30.896552 0 0 0 30.896552-30.896551v-211.756138z m61.793104 211.756138a92.689655 92.689655 0 0 1-92.689656 92.689655h-211.791448a92.689655 92.689655 0 0 1-92.654345-92.689655v-211.756138a92.689655 92.689655 0 0 1 92.654345-92.689655h211.791448l9.463173 0.494344a92.689655 92.689655 0 0 1 83.226483 92.195311v211.756138z" fill="#303030" p-id="5308"></path><path d="M782.830345 453.420138a7.062069 7.062069 0 0 1-9.886897 0l-85.239172-83.650207a7.062069 7.062069 0 0 1 4.943448-12.076138h170.513655a7.062069 7.062069 0 0 1 4.943449 12.076138l-85.239173 83.685517z" fill="#1BAFA2" p-id="5309"></path><path d="M782.830345 453.420138a7.062069 7.062069 0 0 1-9.886897 0l-85.239172-83.614897a7.097379 7.097379 0 0 1 2.754207-11.793655l2.224551-0.317793v7.062069l6.920828-7.062069h163.557517l2.189242 0.353104a7.062069 7.062069 0 0 1 2.754207 11.758344l-85.274483 83.614897z m-90.147311-95.691035h6.920828l-6.920828 7.062069v-7.062069z m101.34069 35.310345h-32.203034l16.101517 15.783724 16.101517-15.819034z" fill="#1BAFA2" p-id="5310"></path><path d="M808.818759 365.815172a30.896552 30.896552 0 1 1-61.793104 0c0-56.673103-0.564966-109.391448-18.46731-148.585931-8.403862-18.361379-20.374069-32.944552-37.993931-43.255172-15.713103-9.216-37.640828-16.101517-68.749242-17.655172l-13.912275-0.353104-3.142621-0.141241a30.931862 30.931862 0 0 1 0-61.475311l3.177931-0.176551 16.948965 0.459034c38.700138 1.942069 70.797241 10.699034 96.926897 26.023724 30.190345 17.690483 50.14069 42.796138 62.958345 70.903173 24.61131 53.812966 24.011034 121.467586 24.011034 174.221241zM217.582345 514.153931a7.062069 7.062069 0 0 1 9.886896 0l85.274483 83.650207a7.062069 7.062069 0 0 1-4.943448 12.111448H137.286621a7.062069 7.062069 0 0 1-4.943449-12.111448l85.239173-83.650207z" fill="#1BAFA2" p-id="5311"></path><path d="M217.617655 514.153931a7.062069 7.062069 0 0 1 9.886897 0l85.239172 83.614897c3.954759 3.884138 2.01269 10.27531-2.754207 11.793655l-2.224551 0.353103v-7.097379l-6.920828 7.062069H137.286621l-2.189242-0.317793a7.097379 7.097379 0 0 1-2.754207-11.793655l85.274483-83.614897z m90.147311 95.726345H300.844138l6.920828-7.062069v7.062069z m-101.34069-35.310345h32.203034l-16.101517-15.783724-16.101517 15.783724z" fill="#1BAFA2" p-id="5312"></path><path d="M191.629241 601.794207a30.896552 30.896552 0 1 1 61.793104 0c0 56.637793 0.564966 109.391448 18.46731 148.550621 8.403862 18.361379 20.374069 32.944552 37.993931 43.290482 15.713103 9.18069 37.640828 16.066207 68.749242 17.655173l13.912275 0.353103 3.142621 0.105931a30.931862 30.931862 0 0 1 0 61.475311l-3.177931 0.176551-16.948965-0.423724c-38.700138-1.977379-70.797241-10.734345-96.926897-26.059034-30.190345-17.690483-50.14069-42.760828-62.958345-70.903173-24.61131-53.812966-24.011034-121.467586-24.011034-174.221241z" fill="#1BAFA2" p-id="5313"></path></svg>