<?xml version="1.0" encoding="utf-8"?>
<svg version="1.1" xmlns:xlink="http://www.w3.org/1999/xlink" width="28px" height="28px" xmlns="http://www.w3.org/2000/svg">
  <g transform="matrix(1 0 0 1 -1067 -452 )">
    <path d="M 2.75 14  C 2.75 7.8125  7.8125 2.75  14 2.75  C 20.1875 2.75  25.25 7.8125  25.25 14  C 25.25 20.1875  20.1875 25.25  14 25.25  C 7.8125 25.25  2.75 20.1875  2.75 14  Z M 27.125 14  C 27.125 6.6875  21.3125 0.875  14 0.875  C 6.6875 0.875  0.875 6.6875  0.875 14  C 0.875 21.3125  6.6875 27.125  14 27.125  C 21.3125 27.125  27.125 21.3125  27.125 14  Z " fill-rule="nonzero" fill="#333333" stroke="none" transform="matrix(1 0 0 1 1067 452 )" />
  </g>
</svg>