<?xml version="1.0" encoding="utf-8"?>
<svg version="1.1" xmlns:xlink="http://www.w3.org/1999/xlink" width="16px" height="11px" xmlns="http://www.w3.org/2000/svg">
  <g transform="matrix(1 0 0 1 -1229 -543 )">
    <path d="M 14.87 0.500000000000004  C 14.51 0.140000000000002  13.91 0.140000000000002  13.55 0.5  L 5.72 8.33  L 2.12 4.73  C 1.76 4.37  1.16 4.37  0.800000000000001 4.73  C 0.44 5.09  0.44 5.69  0.800000000000001 6.05  L 5.03 10.28  C 5.21 10.46  5.48 10.55  5.72 10.55  C 5.96 10.55  6.23 10.46  6.41 10.28  L 14.87 1.82  C 15.23 1.46  15.23 0.860000000000003  14.87 0.500000000000004  Z " fill-rule="nonzero" fill="#70b603" stroke="none" transform="matrix(1 0 0 1 1229 543 )" />
  </g>
</svg>