<?xml version="1.0" encoding="utf-8"?>
<svg version="1.1" xmlns:xlink="http://www.w3.org/1999/xlink" width="30px" height="30px" xmlns="http://www.w3.org/2000/svg">
  <g transform="matrix(1 0 0 1 -1057 -992 )">
    <path d="M 18.6148891113281 12.5833684863281  C 18.6148891113281 12.4241764160156  18.5516320019531 12.2718796582031  18.439208203125 12.15915609375  L 13.6457581640625 7.3657060546875  C 13.4116169238281 7.13156481445313  13.0320742382813 7.13156481445313  12.7979329980469 7.3657060546875  C 12.5637917578125 7.60014708984375  12.5637917578125 7.97968977539062  12.7979329980469 8.213831015625  L 16.5678769628906 11.9837749804688  L 11.4248639355469 11.9837749804688  L 11.4248639355469 5.393043515625  C 11.4248639355469 5.0620679296875  11.1562460449219 4.7934500390625  10.8252704589844 5  L 0.63907669921875 5  C 0.307801318359375 4.7934500390625  0.03948322265625 5.0620679296875  0 5.393043515625  L 0 29.3602937109375  C 0.03948322265625 29.6915690917969  0.3078012890625 29.9598871875  0.63907669921875 30  L 18.0152956347656 30  C 18.346571015625 29.9598871875  18.6148891113281 29.6915691210938  18.6148891113281 29.3602937109375  L 18.6148891113281 12.5833684863281  Z M 17 13.1829619628906  L 17 28.760700234375  L 1.23867017578125 28.760700234375  L 1.23867017578125 5.9926369921875  L 10.2256769824219 5.9926369921875  L 10.2256769824219 12.5833684863281  C 10.2256769824219 12.9143440722656  10.4939950488281 13.1829619628906  10.8252704589844 13.1829619628906  L 17 13.1829619628906  Z M 29.82368953125 7.36600587890625  C 29.9361133007813 7.47842961914063  29.9993704394531 7.63072637695313  30 7.78991844726563  L 30 24.5668437011719  C 29.9993704394531 24.8981190820313  29.7310523730469 25.1664371777344  29.3997769628906 25.1664371777344  L 20.3803920996094 25.1664371777344  C 20.0494165136719 25.1664371777344  19.7807986230469 24.8981191113281  19.7807986230469 24.5668437011719  C 19.7807986230469 24.2358681152344  20.0494165136719 23.9672502246094  20.3803920996094 23.9672502246094  L 28.8001834863281 23.9672502246094  L 28.8001834863281 8.38951192382813  L 22.2097517871094 8.38951192382813  C 21.87847640625 8.38951192382813  21.6101583105469 8.12089403320312  21.6101583105469 7.78991844726563  L 21.6101583105469 1.199186953125  L 12.6231515039063 1.199186953125  L 12.6231515039063 3.41678340820313  C 12.6231515039063 3.7480587890625  12.3545336132812 4.01637688476563  12.0235580273438 4.01637688476563  C 11.6922826464844 4.01637688476563  11.4239645507813 3.74805881835937  11.4239645507813 3.41678340820312  L 11.4239645507812 0.5995934765625  C 11.4239645507812 0.268617890625  11.6922826171875 0  12.0235580273437 0  L 22.2097517871094 0  C 22.5407273730469 0  22.8093452636719 0.268617890625  22.8093452636719 0.5995934765625  L 22.8093452636719 7.19032497070313  L 27.9523582910156 7.19032497070313  L 24.1824143261719 3.42038100585938  C 23.9482730859375 3.186239765625  23.9482730859375 2.80669708007813  24.1824143261719 2.57225604492188  C 24.4165555664063 2.3381148046875  24.7960982519531 2.3381148046875  25.0302394921875 2.57225604492188  L 29.82368953125 7.36600587890625  Z " fill-rule="nonzero" fill="#272636" stroke="none" transform="matrix(1 0 0 1 1057 992 )" />
  </g>
</svg>