<svg class="icon" viewBox="0 0 1024 1024" version="1.1" xmlns="http://www.w3.org/2000/svg" p-id="681" height="128" width="128"><path d="M512 1024C229.216 1024 0 794.784 0 512S229.216 0 512 0s512 229.216 512 512-229.216 512-512 512z m-30.88-430.72c6.496 19.52 19.52 32.512 39.008 32.512 19.52 0 32.512-13.024 39.008-32.512l26.016-357.6c0-39.008-32.512-65.024-65.024-65.024-39.04 0-65.024 32.512-65.024 71.52l26.016 351.104z m39.008 97.504c-39.04 0-65.024 26.016-65.024 65.024 0 39.04 26.016 65.024 65.024 65.024s65.024-26.016 65.024-65.024-26.016-65.024-65.024-65.024z" fill="#E54240" p-id="682"></path></svg>