<?xml version="1.0" encoding="utf-8"?>
<svg version="1.1" xmlns:xlink="http://www.w3.org/1999/xlink" width="12px" height="6px" xmlns="http://www.w3.org/2000/svg">
  <g transform="matrix(1 0 0 1 -46 -3111 )">
    <path d="M 2.43641973629783 0.295781147880042  C 3.35389676835574 0.295781147880042  4.05292687693899 0.87102467942089  4.05292687693898 1.89772518097208  C 4.05292687693898 2.37102682006205  3.85632465356773 2.80792065149948  3.62331462254395 3.28122227507756  L 2.5237984901758 5.5239439089969  L 1.4970980196484 5.5239439089969  L 2.57476943640124 3.38316416752844  C 2.45098285935884 3.43413511375388  2.31263314374354 3.44869823681489  2.18884656670114 3.44869825232679  C 1.489816442606 3.44869825232679  0.819912580144778 2.87345472078594  0.819912580144778 1.91228830403309  C 0.819912580144778 0.892869379524303  1.51894270423992 0.295781163391934  2.43641973629783 0.295781147880042  Z M 2.43641973629783 2.66228935884178  C 2.82234262150982 2.66228935884178  3.10632359875905 2.38558994312306  3.10632359875905 1.90500674250259  C 3.10632359875905 1.42442354188211  2.82234260599793 1.1477241106515  2.43641973629783 1.1477241106515  C 2.05049686659772 1.1477241106515  1.76651587383661 1.42442352637022  1.76651587383661 1.90500674250259  C 1.76651587383661 2.36374525853154  2.03593372802482 2.66228937435367  2.43641973629783 2.66228935884178  Z M 8.00681598241985 1.89772518097208  C 8.00681598241985 2.37102682006205  7.8102137590486 2.80792065149948  7.57720372802482 3.28122227507756  L 6.47695945191313 5.5239439089969  L 5.45025896587384 5.5239439089969  L 6.52793039813857 3.38316416752844  C 6.40414382109617 3.43413511375388  6.26579410548087 3.44869823681489  6.14200751292658 3.44869825232679  C 5.44297738883144 3.44869825232679  4.77307352637022 2.87345472078594  4.77307352637022 1.91228830403309  C 4.77307352637022 0.892869379524303  5.47210365046536 0.295781163391934  6.38958068252327 0.295781147880042  C 7.30705771458118 0.295781147880042  8.00608782316443 0.87102467942089  8.00608782316443 1.89772518097208  Z M 6.3903088417787 2.66228935884178  C 6.77623172699069 2.66228935884178  7.06021270423992 2.38558994312306  7.06021270423992 1.90500674250259  C 7.06021270423992 1.42442354188211  6.7762317114788 1.1477241106515  6.3903088417787 1.1477241106515  C 6.00438597207859 1.1477241106515  5.72040497931748 1.42442352637022  5.72040497931748 1.90500674250259  C 5.72040497931748 2.36374525853154  5.98982283350569 2.66228937435367  6.3903088417787 2.66228935884178  Z M 11.9454138055843 3.06277536711479  L 11.9454138055843 3.95112613753878  L 10.7803636039297 3.95112613753878  L 10.7803636039297 5.11617633919338  L 9.89201283350569 5.11617633919338  L 9.89201283350569 3.95112613753878  L 8.71968107032058 3.95112613753878  L 8.71968107032058 3.06277536711479  L 9.89201283350569 3.06277536711479  L 9.89201283350569 1.89772518097208  L 10.7803636039297 1.89772518097208  L 10.7803636039297 3.06277536711479  L 11.9454138055843 3.06277536711479  Z " fill-rule="nonzero" fill="#ffffff" stroke="none" transform="matrix(1 0 0 1 46 3111 )" />
  </g>
</svg>