<?xml version="1.0" encoding="utf-8"?>
<svg version="1.1" xmlns:xlink="http://www.w3.org/1999/xlink" width="50px" height="50px" xmlns="http://www.w3.org/2000/svg">
  <g transform="matrix(1 0 0 1 -15 -3110 )">
    <path d="M 40 3110  C 54 3110  65 3121  65 3135  C 65 3149  54 3160  40 3160  C 26 3160  15 3149  15 3135  C 15 3121  26 3110  40 3110  Z " fill-rule="nonzero" fill="#ffffff" stroke="none" />
    <path d="M 40 3110.5  C 53.72 3110.5  64.5 3121.28  64.5 3135  C 64.5 3148.72  53.72 3159.5  40 3159.5  C 26.28 3159.5  15.5 3148.72  15.5 3135  C 15.5 3121.28  26.28 3110.5  40 3110.5  Z " stroke-width="1" stroke="#797979" fill="none" />
  </g>
</svg>