<?xml version="1.0" encoding="utf-8"?>
<svg version="1.1" xmlns:xlink="http://www.w3.org/1999/xlink" width="10px" height="11px" xmlns="http://www.w3.org/2000/svg">
  <g transform="matrix(1 0 0 1 -415 -1672 )">
    <path d="M 10 5.90000000976563  L 10 10  L 0 10  L 0 5.90000000976563  C 0 3.15  2.24999999560547 0.900000000000001  5 0.900000000000001  C 6.29999998769531 0.900000000000001  7.54999999501953 1.40000000976563  8.54999998330078 2.30000000976563  C 9.49999999121094 3.24999999023438  10 4.5  10 5.90000000976563  Z M 2.00000000585937 5.90000000976563  L 2.00000000585937 8.15000000976563  L 7.99999999414062 8.15000000976563  L 7.99999999414062 5.90000000976563  C 7.99999999414062 5.05000001953125  7.69999999472656 4.30000001953125  7.1500000055664 3.75  C 6.55000000673828 3.20000000976563  5.80000000820312 2.90000000976563  5 2.90000000976563  C 3.35000000322266 2.90000000976563  2.00000000585937 4.25000000976563  2.00000000585937 5.90000000976563  Z " fill-rule="nonzero" fill="#3793df" stroke="none" transform="matrix(1 0 0 1 415 1672 )" />
  </g>
</svg>