<?xml version="1.0" encoding="utf-8"?>
<svg version="1.1" xmlns:xlink="http://www.w3.org/1999/xlink" width="26px" height="12px" xmlns="http://www.w3.org/2000/svg">
  <g transform="matrix(1 0 0 1 -407 -1624 )">
    <path d="M 2.25000000976563 10.95  C 2.2 11.4500000097656  1.75 11.7500000097656  1.3 11.7500000097656  L 1.09999999023437 11.7500000097656  C 0.55 11.6500000195313  0.199999990234375 11.1  0.349999990234375 10.5500000097656  C 0.649999990234375 9.3  1.09999999023437 8.05000001953125  1.75 6.95000000976562  C 4.09999999023437 2.90000000976563  8.35 0.450000000000001  13 0.450000000000001  C 17.7000000097656 0.450000000000001  21.9000000097656 2.90000000976563  24.25 6.95000000976562  C 24.7999999902344 7.95  25.2000000097656 8.95000001953125  25.5499999902344 9.99999999023438  C 25.6999999902344 10.5499999804688  25.3999999902344 11.1  24.9000000097656 11.25  C 24.3500000195313 11.4  23.8 11.1  23.65 10.5999999902344  C 23.35 9.64999998046875  22.9999999902344 8.79999999023438  22.5499999902344 7.95  C 20.5499999804688 4.5  16.9999999902344 2.45000000976562  13 2.45000000976562  C 9.00000000976563 2.45000000976562  5.44999999023438 4.5  3.45000000976563 7.95  C 2.90000001953125 8.85  2.5 9.9  2.25000000976563 10.95  Z " fill-rule="nonzero" fill="#3793df" stroke="none" transform="matrix(1 0 0 1 407 1624 )" />
  </g>
</svg>