<?xml version="1.0" encoding="utf-8"?>
<svg version="1.1" xmlns:xlink="http://www.w3.org/1999/xlink" width="7px" height="9px" xmlns="http://www.w3.org/2000/svg">
  <g transform="matrix(1 0 0 1 -426 -1619 )">
    <path d="M 6.69999999023437 4.75000000976563  C 6.69999999023437 5.30000002929687  6.24999999023438 5.75  5.7 5.75  L 1.70000000976563 5.75  C 1.15000001953125 5.75  0.700000019531252 5.3  0.699999990234378 4.75000000976563  C 0.6999999609375 4.20000001953125  1.14999999023438 3.75000001953125  1.70000000976563 3.74999999023438  L 5.7 3.74999999023438  C 6.24999999023438 3.74999999023438  6.69999999023437 4.19999999023438  6.69999999023437 4.75000000976563  Z M 6.69999999023437 1.75000000976562  C 6.69999999023437 2.30000002929687  6.24999999023438 2.75  5.7 2.75  L 2.7 2.75  C 2.15000000976563 2.75  1.70000000976563 2.3  1.70000000976563 1.75000000976562  C 1.70000000976563 1.20000001953125  2.15000000976563 0.75000001953125  2.7 0.749999990234375  L 5.7 0.749999990234375  C 6.24999999023438 0.749999990234375  6.69999999023437 1.19999999023438  6.69999999023437 1.75000000976562  Z M 6.69999999023437 7.75000000976562  C 6.69999999023437 8.30000002929687  6.24999999023438 8.75  5.7 8.75  L 3.69999999023437 8.75  C 3.15 8.75  2.7 8.3  2.7 7.75000000976562  C 2.7 7.20000001953125  3.15 6.75000001953125  3.69999999023437 6.74999999023438  L 5.7 6.74999999023438  C 6.24999999023438 6.74999999023438  6.69999999023437 7.19999999023437  6.69999999023437 7.75000000976562  Z " fill-rule="nonzero" fill="#eb4af4" stroke="none" transform="matrix(1 0 0 1 426 1619 )" />
  </g>
</svg>