<?xml version="1.0" encoding="utf-8"?>
<svg version="1.1" xmlns:xlink="http://www.w3.org/1999/xlink" width="15px" height="15px" xmlns="http://www.w3.org/2000/svg">
  <g transform="matrix(1 0 0 1 -413 -1612 )">
    <path d="M 14.2 7.25000000976562  C 14.2 11.1000000292969  11.05 14.25  7.20000000976563 14.25  C 3.35000001953125 14.25  0.200000019531251 11.1  0.199999990234376 7.25000000976562  C 0.199999960937502 3.40000001953125  3.34999999023437 0.250000019531249  7.20000000976563 0.249999990234373  C 11.0500000292969 0.249999960937498  14.2 3.39999999023437  14.2 7.25000000976562  Z M 12.1999999902344 7.25000000976562  C 12.1999999609375 4.50000002929687  9.94999999023438 2.25  7.20000000976563 2.25  C 4.45 2.25  2.2 4.5  2.2 7.25000000976562  C 2.2 10.0000000195312  4.45 12.2500000195312  7.20000000976563 12.2499999902344  C 9.95000001953125 12.2499999609375  12.2000000195312 9.99999999023437  12.1999999902344 7.25000000976562  Z " fill-rule="nonzero" fill="#3793df" stroke="none" transform="matrix(1 0 0 1 413 1612 )" />
  </g>
</svg>