<?xml version="1.0" encoding="utf-8"?>
<svg version="1.1" xmlns:xlink="http://www.w3.org/1999/xlink" width="20px" height="16px" xmlns="http://www.w3.org/2000/svg">
  <g transform="matrix(1 0 0 1 -410 -1680 )">
    <path d="M 20 13.0500000097656  C 19.9999999902344 14.2  19.0999999902344 15.1500000097656  18.0000000097656 15  L 1.99999999023438 15  C 0.89999998046875 15.1500000097656  0 14.2  0 13.0500000097656  L 0 2.2  C 0 1.05000000976563  0.900000009765625 0.0999999999999996  1.99999999023438 0  L 18.0000000097656 0  C 19.1000000195313 0.0999999999999996  20.0000000195312 1.05000000976563  20 2.2  L 20 13.0500000097656  Z M 17.95 2.10000000976562  L 2 2.10000000976562  L 2 13.0500000097656  C 1.99999999023438 13.1000000195313  2.05 13.15  2.05 13  L 18 13  L 18 2.2  C 18.0000000097656 2.14999999023438  17.95 2.10000000976562  17.95 2.10000000976562  Z " fill-rule="nonzero" fill="#3793df" stroke="none" transform="matrix(1 0 0 1 410 1680 )" />
  </g>
</svg>