<?xml version="1.0" encoding="utf-8"?>
<svg version="1.1" xmlns:xlink="http://www.w3.org/1999/xlink" width="12px" height="11px" xmlns="http://www.w3.org/2000/svg">
  <g transform="matrix(1 0 0 1 -413 -1738 )">
    <path d="M 11.015625 1.125  C 10.6318359375 0.83203125  10.08984375 0.9052734375  9.802734375 1.283203125  L 4.681640625 8.0009765625  L 2.07421875 5.771484375  C 1.9189453125 5.6396484375  1.7197265625 5.56640625  1.5146484375 5.56640625  C 1.2626953125 5.56640625  1.0224609375 5.6748046875  0.8583984375 5.8681640625  C 0.55078125 6.228515625  0.591796875 6.7763671875  0.955078125 7.083984375  L 4.2568359375 9.908203125  C 4.4091796875 10.037109375  4.6201171875 10.11328125  4.8310546875 10.11328125  C 4.857421875 10.11328125  4.8837890625 10.11328125  4.91015625 10.1103515625  C 5.14453125 10.0869140625  5.361328125 9.9638671875  5.5048828125 9.7763671875  L 11.1796875 2.3349609375  C 11.3203125 2.150390625  11.37890625 1.9248046875  11.3466796875 1.6962890625  C 11.3173828125 1.4677734375  11.197265625 1.265625  11.015625 1.125  Z " fill-rule="nonzero" fill="#eb4af4" stroke="none" transform="matrix(1 0 0 1 413 1738 )" />
  </g>
</svg>