<?xml version="1.0" encoding="utf-8"?>
<svg version="1.1" xmlns:xlink="http://www.w3.org/1999/xlink" width="22px" height="22px" xmlns="http://www.w3.org/2000/svg">
  <g transform="matrix(1 0 0 1 -409 -1491 )">
    <path d="M 1.45455078125 8.27275390625  L 1.45455078125 13.72724609375  L 20.54544921875 13.72724609375  L 20.54544921875 8.27275390625  L 1.45455078125 8.27275390625  Z M 20.54544921875 15  L 1.45455078125 15  L 1.45455078125 19.86365234375  C 1.45456696097569 20.2402030993198  1.75982619720758 20.5454492190976  2.136376953125 20.54544921875  L 19.863623046875 20.54544921875  C 20.2401852436371 20.54544921875  20.54544921875 20.2401852436371  20.54544921875 19.863623046875  L 20.54544921875 15  Z M 1.45455078125 2.136376953125  L 1.45455078125 7  L 20.54544921875 7  L 20.54544921875 2.13634765625  C 20.5454330390243 1.7597969006802  20.2401738027924 1.4545507809024  19.863623046875 1.45455078125  L 2.136376953125 1.45455078125  C 1.75981475636293 1.45455078125  1.45455078125 1.75981475636293  1.45455078125 2.136376953125  Z M 1.45455078125 0  L 20.54544921875 0  C 20.545458984492 0.0908984372901882  20.5454687501978 0.0908984371852819  20.5454785159397 0.0908984371852819  C 21.2985867292466 0.0908984371852819  21.9091015628147 0.701413270753419  21.9091015628147 1.45452148406028  C 21.9091015628147 1.45453124993377  21.9091015627098 1.45454101537652  22 1.45455078125  L 22 20.54544921875  C 21.9091015627098 20.5454589843228  21.9091015628147 20.5454687503669  21.9091015628147 20.5454785159397  C 21.9091015628147 21.2985867292466  21.2985867292466 21.9091015628147  20.5454785159397 21.9091015628147  C 20.5454687500662 21.9091015628147  20.5454589846235 21.9091015627098  20.54544921875 22  L 1.45455078125 22  C 1.45454101567717 21.9091015627098  1.45453124963311 21.9091015628147  1.45452148406028 21.9091015628147  C 0.701413270753415 21.9091015628147  0.0908984371852783 21.2985867292466  0.0908984371852783 20.5454785159397  C 0.0908984371852783 20.5454687502166  0.0908984372901855 20.5454589844732  0 20.54544921875  L 0 1.45455078125  C 0.0908984372901855 1.45454101552684  0.0908984371852783 1.45453124978344  0.0908984371852783 1.45452148406028  C 0.0908984371852783 0.701413270753415  0.701413270753415 0.0908984371852783  1.45452148406028 0.0908984371852783  C 1.45453124978344 0.0908984371852783  1.45454101552684 0.0908984372901855  1.45455078125 0  Z M 4.181826171875 4.86365234375  C 3.80526397511293 4.86365234375  3.5 4.55838836863707  3.5 4.181826171875  C 3.5 3.80526397511293  3.80526397511293 3.5  4.181826171875 3.5  C 4.55663609301663 3.50245692495351  4.85918298568066 3.80699354966034  4.85918298568066 4.1818115234375  C 4.85918298568066 4.55662949721467  4.55663609301663 4.8611661219215  4.181826171875 4.863623046875  Z M 6.227275390625 4.86365234375  C 5.85071319386293 4.86365234375  5.54544921875 4.55838836863707  5.54544921875 4.181826171875  C 5.54544921875 3.80526397511293  5.85071319386293 3.5  6.227275390625 3.5  C 6.60208531176663 3.50245692495351  6.90463220443066 3.80699354966034  6.90463220443066 4.1818115234375  C 6.90463220443066 4.55662949721467  6.60208531176663 4.8611661219215  6.227275390625 4.863623046875  Z M 8.272724609375 4.86365234375  C 7.89616241261293 4.86365234375  7.5908984375 4.55838836863707  7.5908984375 4.181826171875  C 7.5908984375 3.80526397511293  7.89616241261293 3.5  8.272724609375 3.5  C 8.64753453051662 3.50245692495351  8.95008142318066 3.80699354966034  8.95008142318066 4.1818115234375  C 8.95008142318066 4.55662949721467  8.64753453051662 4.86116612192149  8.272724609375 4.863623046875  Z M 11.6862662330693 4.1818115234375  C 11.6862662330693 3.80699354966034  11.9888131257334 3.50245692495351  12.363623046875 3.5  L 17.818173828125 3.5  C 18.1929837492666 3.50245692495351  18.4955306419307 3.80699354966034  18.4955306419307 4.1818115234375  C 18.4955306419307 4.55662949721466  18.1929837492666 4.86116612192149  17.818173828125 4.863623046875  L 12.363623046875 4.863623046875  C 11.9888131257334 4.86116612192149  11.6862662330693 4.55662949721467  11.6862662330693 4.1818115234375  Z M 4.181826171875 11.681826171875  C 3.80526397511293 11.681826171875  3.5 11.3765621967621  3.5 11  C 3.5 10.6234378032379  3.80526397511293 10.318173828125  4.181826171875 10.318173828125  C 4.55838836863707 10.318173828125  4.86365234375 10.6234378032379  4.86365234375 11  C 4.86365234375 11.3765621967621  4.55838836863707 11.681826171875  4.181826171875 11.681826171875  Z M 6.227275390625 11.681826171875  C 5.85071319386293 11.681826171875  5.54544921875 11.3765621967621  5.54544921875 11  C 5.54544921875 10.6234378032379  5.85071319386293 10.318173828125  6.227275390625 10.318173828125  C 6.60383758738707 10.318173828125  6.9091015625 10.6234378032379  6.9091015625 11  C 6.9091015625 11.3765621967621  6.60383758738707 11.681826171875  6.227275390625 11.681826171875  Z M 8.272724609375 11.681826171875  C 7.89616241261293 11.681826171875  7.5908984375 11.3765621967621  7.5908984375 11  C 7.5908984375 10.6234378032379  7.89616241261293 10.318173828125  8.272724609375 10.318173828125  C 8.64928680613707 10.318173828125  8.95455078125 10.6234378032379  8.95455078125 11  C 8.95455078125 11.3765621967621  8.64928680613707 11.681826171875  8.272724609375 11.681826171875  Z M 12.363623046875 10.318173828125  L 17.818173828125 10.318173828125  C 18.1947360248871 10.318173828125  18.5 10.6234378032379  18.5 11  C 18.5 11.3765621967621  18.1947360248871 11.681826171875  17.818173828125 11.681826171875  L 12.363623046875 11.681826171875  C 11.9870608501129 11.681826171875  11.681796875 11.3765621967621  11.681796875 11  C 11.681796875 10.6234378032379  11.9870608501129 10.318173828125  12.363623046875 10.318173828125  Z M 4.85918298568048 17.8181884765625  C 4.85918298568048 18.1930064503396  4.55663609301656 18.4975430750464  4.181826171875 18.5  C 4.18033640585643 18.5000097655988  4.17884661183106 18.5000146484375  4.17735681380548 18.5000146484375  C 3.8007946170434 18.5000146484375  3.49553064193048 18.1947506733246  3.49553064193048 17.8181884765625  C 3.49553064193048 17.4416262798004  3.8007946170434 17.1363623046875  4.17735681380548 17.1363623046875  C 4.1788466118313 17.1363623046875  4.18033640585618 17.1363671875262  4.181826171875 17.136376953125  C 4.55663609301656 17.1388338780786  4.85918298568048 17.4433705027854  4.85918298568048 17.8181884765625  Z M 6.90463220443048 17.8181884765625  C 6.90463220443048 18.1930064503396  6.60208531176655 18.4975430750464  6.227275390625 18.5  C 6.22578562460643 18.5000097655988  6.22429583058106 18.5000146484375  6.22280603255548 18.5000146484375  C 5.8462438357934 18.5000146484375  5.54097986068048 18.1947506733246  5.54097986068048 17.8181884765625  C 5.54097986068048 17.4416262798004  5.84624383579341 17.1363623046875  6.22280603255548 17.1363623046875  C 6.2242958305813 17.1363623046875  6.22578562460618 17.1363671875262  6.227275390625 17.136376953125  C 6.60208531176655 17.1388338780786  6.90463220443048 17.4433705027854  6.90463220443048 17.8181884765625  Z M 8.95008142318048 17.8181884765625  C 8.95008142318048 18.1930064503396  8.64753453051655 18.4975430750464  8.272724609375 18.5  C 8.27123484335643 18.5000097655988  8.26974504933106 18.5000146484375  8.26825525130548 18.5000146484375  C 7.8916930545434 18.5000146484375  7.58642907943047 18.1947506733246  7.58642907943047 17.8181884765625  C 7.58642907943047 17.4416262798004  7.8916930545434 17.1363623046875  8.26825525130548 17.1363623046875  C 8.2697450493313 17.1363623046875  8.27123484335618 17.1363671875262  8.272724609375 17.136376953125  C 8.64753453051655 17.1388338780786  8.95008142318048 17.4433705027854  8.95008142318048 17.8181884765625  Z M 11.6862662330695 17.8181884765625  C 11.6862662330695 17.4433705027854  11.9888131257334 17.1388338780786  12.363623046875 17.136376953125  L 17.818173828125 17.136376953125  C 18.1929837492666 17.1388338780786  18.4955306419305 17.4433705027854  18.4955306419305 17.8181884765625  C 18.4955306419305 18.1930064503396  18.1929837492666 18.4975430750464  17.818173828125 18.5  L 12.363623046875 18.5  C 11.9888131257334 18.4975430750464  11.6862662330695 18.1930064503396  11.6862662330695 17.8181884765625  Z " fill-rule="nonzero" fill="#3793df" stroke="none" transform="matrix(1 0 0 1 409 1491 )" />
  </g>
</svg>