<?xml version="1.0" encoding="utf-8"?>
<svg version="1.1" xmlns:xlink="http://www.w3.org/1999/xlink" width="28px" height="30px" xmlns="http://www.w3.org/2000/svg">
  <g transform="matrix(1 0 0 1 -405 -1729 )">
    <path d="M 27.40625 5.8974609375  C 27.4091796875 5.4521484375  27.0751953125 5.0830078125  26.6298828125 5.0390625  C 26.5595703125 5.033203125  19.44921875 4.2978515625  14.5068359375 0.708984375  C 14.357421875 0.6005859375  14.1845703125 0.544921875  14 0.544921875  C 13.818359375 0.544921875  13.642578125 0.6005859375  13.4931640625 0.708984375  C 8.5771484375 4.27734375  1.4404296875 5.033203125  1.3701171875 5.0390625  C 0.9248046875 5.080078125  0.5908203125 5.4521484375  0.5908203125 5.8974609375  C 0.5908203125 6.09375  0.6083984375 10.7548828125  2.1962890625 15.9873046875  C 3.13671875 19.0869140625  4.4345703125 21.7412109375  6.060546875 23.8740234375  C 8.1201171875 26.578125  10.7041015625 28.4443359375  13.736328125 29.4169921875  C 13.8212890625 29.443359375  13.9091796875 29.4580078125  14 29.4580078125  C 14.0908203125 29.4580078125  14.1787109375 29.443359375  14.2607421875 29.4169921875  C 17.2958984375 28.4443359375  19.876953125 26.5810546875  21.9365234375 23.8740234375  C 23.5595703125 21.744140625  24.8603515625 19.0927734375  25.80078125 15.9873046875  C 27.3857421875 10.7548828125  27.40625 6.09375  27.40625 5.8974609375  Z M 25.6162109375 6.650390625  L 25.6630859375 6.65625  L 25.66015625 6.703125  C 25.5751953125 8.4052734375  25.267578125 11.8125  24.154296875 15.4892578125  C 22.2001953125 21.9375  18.7900390625 26.0390625  14.017578125 27.6796875  L 14 27.685546875  L 13.982421875 27.6796875  C 9.224609375 26.0419921875  5.8173828125 21.955078125  3.857421875 15.5302734375  C 2.69140625 11.70703125  2.41015625 8.0830078125  2.33984375 6.7001953125  L 2.3369140625 6.6533203125  L 2.380859375 6.6474609375  C 4.44921875 6.345703125  9.7197265625 5.3349609375  13.9677734375 2.4755859375  L 13.994140625 2.455078125  L 14.0234375 2.4755859375  C 18.27734375 5.3349609375  23.5478515625 6.345703125  25.6162109375 6.650390625  Z " fill-rule="nonzero" fill="#3793df" stroke="none" transform="matrix(1 0 0 1 405 1729 )" />
  </g>
</svg>