<?xml version="1.0" encoding="utf-8"?>
<svg version="1.1" xmlns:xlink="http://www.w3.org/1999/xlink" width="25px" height="30px" xmlns="http://www.w3.org/2000/svg">
  <g transform="matrix(1 0 0 1 -409 -1547 )">
    <path d="M 24.7129166796875 26.3470833398438  C 24.7108509964568 28.3631893610035  23.0773551961137 29.997244313653  21.06125 30  L 4.03499999023438 30  C 2.01873208013112 29.9974738203447  0.384982830239355 28.363351773837  0.382916679687499 26.3470833398437  L 0.382916679687499 20.3391666796875  C 0.382916679687499 20.1150311259057  0.56461444621821 19.933333359375  0.788749999999999 19.933333359375  C 1.01288555378179 19.933333359375  1.1945833203125 20.1150311259057  1.1945833203125 20.3391666796875  L 1.1945833203125 26.3470833398437  C 1.19619058083823 27.9154335203537  2.46706675174179 29.1864960753792  4.0354166796875 29  L 21.0616666601562 29  C 22.6300165766605 29.1864960592375  23.9008927297393 27.9154335089312  24 26.3470833398437  L 24 3.65291666015625  C 23.9008927297393 2.08456649106879  22.6300165766605 0.813503940762492  21.0616666601562 1  L 4.03499999023437 1  C 2.46674513798527 0.813733019116473  1.19600301294475 2.08466152172683  1.19416666015625 3.65291666015625  L 1.19416666015625 9.66125000976563  C 1.19416666015625 9.88538557163752  1.01246888706721 10.0670833447266  0.788333325195311 10.0670833447266  C 0.564197763323413 10.0670833447266  0.382499990234375 9.88538557163752  0.382499990234375 9.66125000976563  L 0.382499990234375 3.65291666015625  C 0.384566140818174 1.63664821474155  2.01831540853319 0.00252616351541877  4.03458333007813 0  L 21.0608333398438 0  C 23.0771012613887 0.00252616351541788  24.7108505291037 1.63664821474155  24.7129166796875 3.65291666015625  L 24.7129166796875 26.3470833398438  Z " fill-rule="nonzero" fill="#3793df" stroke="none" transform="matrix(1 0 0 1 409 1547 )" />
  </g>
</svg>