<?xml version="1.0" encoding="utf-8"?>
<svg version="1.1" xmlns:xlink="http://www.w3.org/1999/xlink" width="38px" height="38px" xmlns="http://www.w3.org/2000/svg">
  <g transform="matrix(1 0 0 1 -1184 -964 )">
    <path d="M 38 19  C 38 8.525  29.47625 0  19 0  C 8.52375 0  0 8.525  0 19  C 0 29.475  8.475 38  18.89375 38  L 19.10625 38  C 29.52375 38  38 29.475  38 19  Z M 28.1325 19.99125  L 28.13375 19.99125  L 36 19.99125  C 35.7525 23.45125  34.555 26.63375  32.525 29.23375  C 31.42125 28.31625  29.6875 27.57375  27.24 26.97125  C 27.78625 24.42125  28.00625 21.93375  28.1325 19.99125  Z M 28.14625 18.00875  C 28.1066116250413 15.6911108074185  27.8059652577942 13.38531670213  27.25 11.135  C 28.9575 10.7275  31.16125 10.00125  32.6275 8.7725  C 34.59625 11.415  35.7575 14.5975  36.00125 18.00875  L 28.14625 18.00875  Z M 25.27375 26.6625  C 23.32625 26.3625  21.42875 26.18625  19.99125 26.1675  L 19.99125 19.99125  L 26.1625 19.99125  C 26.14 21.59125  25.89625 24.08875  25.27375 26.6625  Z M 26.1275 17.70875  L 26.1475 18.00875  L 19.99125 18.00875  L 19.99125 11.94  C 21.47625 11.9225  23.25125 11.755  25.27625 11.4425  C 25.87875 13.8675  26.0275 16.17  26.1275 17.70875  Z M 22.99625 2.46875  C 26.13375 3.18875  29.0025 4.855  31.35 7.32625  C 30.38 8.0975  28.75 8.7625  26.79875 9.17625  C 25.90125 6.35625  24.625 4.105  22.99625 2.46875  Z M 24.7125 9.58625  C 22.96625 9.87125  21.2325 9.9475  19.99125 9.95625  L 19.99125 2.59  C 22.03125 3.8475  23.6175 6.1975  24.7125 9.58625  Z M 19.99125 28.14875  C 21.34125 28.16875  22.99375 28.335  24.71 28.62375  C 23.61875 31.88  22.03375 34.16  19.99125 35.41125  L 19.99125 28.14875  Z M 22.99875 35.53  L 22.9975 35.53  C 24.59625 33.93  25.7825 31.805  26.6925 28.93  C 28.6425 29.34375  30.275 30.00875  31.2425 30.78  C 28.9925 33.15125  26.1 34.815  22.99875 35.53  Z M 12.72375 11.54625  C 14.9875 11.87125  17.02375 11.93125  18.00875 11.94  L 18.00875 18.00875  L 11.8375 18.00875  C 11.86 16.39125  12.1025 13.93875  12.72375 11.54625  Z M 11.8725 20.29625  L 11.8525 19.99125  L 18.00875 19.99125  L 18.00875 26.16625  C 16.2075 26.18  14.4325 26.345  12.72375 26.655  C 12.1225 24.1475  11.9725 21.83875  11.8725 20.29625  Z M 6.65 7.325  L 6.65 7.32625  C 8.9975 4.855  11.86625 3.18875  15.005 2.46875  C 13.35875 4.125  12.0825 6.40625  11.2025 9.27125  C 9.14375 8.7375  7.58125 8.06875  6.65 7.325  Z M 6.75625 30.78  C 7.725 30.00875  9.35625 29.34375  11.3075 28.93  C 12.1875 31.6975  13.455 33.955  15.00625 35.53  C 11.90375 34.8175  9.00875 33.1525  6.75625 30.78  Z M 13.2875 28.52  C 15.0375 28.2325  16.77 28.1575  18.00875 28.14875  L 18.00875 35.41125  C 15.94625 34.14625  14.35875 31.8325  13.2875 28.52  Z M 18.00875 9.95625  C 16.58375 9.93625  14.9075 9.75875  13.2825 9.57  C 14.20125 6.445  15.86375 3.995  18.00875 2.60375  L 18.00875 9.95625  Z M 2.0975 18.00875  L 2.09875 18.00875  C 2.23422790135107 14.6700443633926  3.37534091192867 11.4501798547372  5.3725 8.77125  C 6.84125 10.0025  9.04875 10.73  10.7575 11.1375  C 10.2733319081213 13.3972733380496  10.0062840434959 15.6981543910994  9.96 18.00875  L 2.0975 18.00875  Z M 2 19.99125  L 9.85375 19.99125  C 9.86625 21.095  9.985 23.89875  10.75 26.97375  C 8.3125 27.57375  6.58 28.315  5.47875 29.23  C 3.44 26.49875  2.24125 23.315  2 19.99125  Z " fill-rule="nonzero" fill="#f2f2f2" stroke="none" transform="matrix(1 0 0 1 1184 964 )" />
  </g>
</svg>