<?xml version="1.0" encoding="utf-8"?>
<svg version="1.1" xmlns:xlink="http://www.w3.org/1999/xlink" width="24px" height="28px" xmlns="http://www.w3.org/2000/svg">
  <g transform="matrix(1 0 0 1 -410 -1548 )">
    <path d="M 23 3.34791666992188  C 23.3036775691459 1.55413049666741  21.8479547912414 0.101950981631449  20.0541666601563 0.1033333203125  L 4.11833333007812 0.1033333203125  C 2.32373279894206 0.101951903819474  0.867673392529031 1.55539988053059  0.865833320312499 3.35  L 0.865833320312499 12.2995833300781  L 9.82958333007812 12.2995833300781  L 7.82250000976562 10.3654166796875  C 7.82250000976562 10.3654166796875  7.30375 7.29125  10.4175000097656 7.775  L 15.6079166699219 12.9558333300781  C 15.9969808525967 13.5292629808734  15.9969808525967 14.281987009361  15.6079166699219 14.8554166601562  L 10.5908333300781 19.8633333300781  C 10.5908333300781 19.8633333300781  7.44208333984375 20.41625  8.23791666015625 17.5300000097656  L 10.1233333398438 15.6133333203125  L 0.865833320312501 15.5645833203125  L 0.865833320312501 24.6479166699219  C 0.867673408694597 26.4425167779459  2.32373281037087 27.8959647368133  4.11833333007813 27.8945833203125  L 20.0541666601563 27.8945833203125  C 21.8487671798635 27.8959647368133  23.3048265815398 26.4425167779459  23 24.6479166699219  L 23 3.34791666992188  Z " fill-rule="nonzero" fill="#f2f2f2" stroke="none" transform="matrix(1 0 0 1 410 1548 )" />
  </g>
</svg>