<?xml version="1.0" encoding="utf-8"?>
<svg version="1.1" xmlns:xlink="http://www.w3.org/1999/xlink" width="20px" height="12px" xmlns="http://www.w3.org/2000/svg">
  <g transform="matrix(1 0 0 1 -406 -1556 )">
    <path d="M 19.1099999902344 6.39375  L 19.1108333398438 6.39541666992188  C 19.18996218431 6.20740500811282  19.2105812680282 5.99990726597836  19.1699999902344 5.79999999023438  C 19.1654166699219 5.77749999023438  19.1566666601563 5.75833333007813  19.1508333300781 5.73500000976563  C 19.1406464220723 5.69340060264759  19.1278431800165 5.65248587391782  19.1125000097656 5.61249999023438  C 19.0962742980453 5.57657052401808  19.0779079749029 5.54164670229631  19.0574999902344 5.5079166796875  C 19.0445833203125 5.48500001953125  19.0345833300781 5.46125000976563  19.0199999902344 5.43916666992188  C 18.9810849838481 5.38070107248589  18.9362663653715 5.32638815780963  18.88625 5.2770833203125  L 14.5591666601563 0.950000009765624  C 14.3699457307792 0.767321550585432  14.1172016777304 0.665226453919916  13.8541884089344 0.665226453919916  C 13.2936193932496 0.665226453919916  12.8391884187 1.11965742846944  12.8391884187 1.68022644415429  C 12.8391884187 1.94334164693543  12.9413624645349 2.19617545843903  13.1241666699219 2.38541666015625  L 15.7254166601562 5  L 1.3025 5  C 1.30244249566116 4.985  1.30238499132198 4.98499999511719  1.30232748698231 4.98499999511719  C 0.741298225016926 4.98499999511719  0.286494147138561 5.43980407299555  0.286494147138561 6.00083333496094  C 0.286494147138561 6.56186259692632  0.741298225016926 7.01666667480469  1.30232748698231 7.01666667480469  C 1.30238499132198 7.01666667480469  1.30244249566116 7.01666666992188  1.3025 7  L 15.7266666699219 7  L 13.1270833203125 9.61625000976563  C 12.9366600727213 9.80647363980138  12.8296646095641 10.0645920870657  12.8296646095641 10.3337501124842  C 12.8296646095641 10.8936644427935  13.2834190574965 11.3476417403769  13.8433333203125 11.3479166601563  C 14.1122619988943 11.3493623116889  14.37043796813 11.2424272994366  14.5595833203125 11.05125  L 18.8929166796875 6.71791666992188  C 18.9855920988428 6.6249424182884  19.0593193969243 6.5148467474549  19.1099999902344 6.39375  Z " fill-rule="nonzero" fill="#3793df" stroke="none" transform="matrix(1 0 0 1 406 1556 )" />
  </g>
</svg>