<?xml version="1.0" encoding="utf-8"?>
<svg version="1.1" xmlns:xlink="http://www.w3.org/1999/xlink" width="5px" height="5px" xmlns="http://www.w3.org/2000/svg">
  <g transform="matrix(1 0 0 1 -1451 -255 )">
    <path d="M 0.105468749999949 1.7734374999999  C 0.01953125 2.06250000000005  -0.0156249999998989 2.37109374999995  0.00781249999994947 2.6914062499999  C 0.101562500000101 3.91406249999995  1.08593750000005 4.8984374999999  2.3085937500001 4.99218750000005  C 2.62890625000005 5.0156249999999  2.93749999999995 4.98046875  3.22265625 4.89062499999995  L 0.105468749999949 1.7734374999999  Z M 4.89062499999995 3.2265625000001  C 4.9609375 2.99609374999995  5 2.7499999999999  5 2.5  C 5 2.44921874999995  4.9960937499999 2.3984374999999  4.9960937499999 2.3476562500001  C 4.77734375000005 2.4453125000001  4.53906249999995 2.5  4.28515624999995 2.5  C 4.2421875000001 2.5  4.2031250000001 2.5  4.1640625000001 2.4960937499999  L 4.89062499999995 3.2265625000001  Z M 2.50781249999995 0.83984375  C 2.5039062500001 0.78125  2.5 0.72265625  2.5 0.6640625  C 2.5 0.4296875  2.5429687500001 0.207031250000051  2.6210937500001 0.00390625000010105  C 2.5820312500001 0.00390625000010105  2.5429687500001 0  2.5 0  C 2.2500000000001 0  2.0078124999999 0.0390625  1.77734375 0.109375000000051  L 2.50781249999995 0.83984375  Z " fill-rule="nonzero" fill="#409eff" stroke="none" transform="matrix(1 0 0 1 1451 255 )" />
  </g>
</svg>