<?xml version="1.0" encoding="utf-8"?>
<svg version="1.1" xmlns:xlink="http://www.w3.org/1999/xlink" width="18px" height="15px" xmlns="http://www.w3.org/2000/svg">
  <g transform="matrix(1 0 0 1 -1445 -250 )">
    <path d="M 16.5455357142856 14.0207253886011  L 2.26205357142853 0.198186528497392  C 2.03705357142853 -0.0155440414507141  1.67544642857147 -0.0155440414507141  1.4544642857144 0.202072538860071  C 1.23348214285706 0.415803108808177  1.23348214285706 0.765544041450819  1.4544642857144 0.979274611398925  L 15.7379464285715 14.8018134715026  C 15.8866071428571 14.9455958549222  16.0995535714285 14.9922279792746  16.2883928571429 14.9417098445596  C 16.3848214285715 14.9183937823835  16.4732142857144 14.8678756476684  16.5455357142856 14.7979274611399  C 16.7665178571429 14.5841968911918  16.7665178571429 14.2344559585492  16.5455357142856 14.0207253886011  Z M 10.5508928571429 10.6593264248705  C 10.125 10.8536269430052  9.65892857142853 10.9702072538861  9.16875 10.9935233160622  C 7.0392857142856 11.0867875647667  5.2875 9.39248704663205  5.38794642857147 7.33678756476671  C 5.41205357142853 6.8626943005181  5.5325892857144 6.41191709844555  5.73348214285707 6.00388601036273  L 3.58794642857147 3.92487046632132  C 2.475 4.75647668393794  1.36205357142853 5.82512953367873  0.16875 7.08419689119182  C -0.0522321428570649 7.321243523316  -0.05625 7.67487046632132  0.164732142857065 7.9119170984455  C 2.77232142857147 10.6981865284973  5.0705357142856 13.0958549222799  8.9919642857144 13.0958549222799  C 10.1852678571429 13.0958549222799  11.2861607142856 12.8082901554404  12.2986607142856 12.3497409326425  L 10.5508928571429 10.6593264248705  Z M 14.4160714285715 11.0751295336787  C 15.7419642857144 10.0919689119171  16.8790178571429 8.90284974093272  17.83125 7.88860103626943  C 18.0441964285715 7.66321243523328  18.05625 7.321243523316  17.8513392857144 7.08419689119182  C 15.75 4.61658031088072  12.8370535714285 1.90414507772009  8.9919642857144 1.90414507772009  C 7.82276785714294 1.90414507772009  6.7419642857144 2.16062176165792  5.69732142857147 2.64248704663216  L 7.453125 4.3406735751295  C 7.875 4.14637305699478  8.34107142857147 4.02590673575123  8.83125 4.00647668393783  C 10.9607142857144 3.91321243523329  12.7125 5.60751295336795  12.6120535714285 7.66321243523328  C 12.5879464285715 8.1373056994819  12.4674107142856 8.58808290155445  12.2665178571429 8.99611398963727  L 14.4160714285715 11.0751295336787  Z " fill-rule="nonzero" fill="#409eff" stroke="none" transform="matrix(1 0 0 1 1445 250 )" />
  </g>
</svg>